<svg id="Capa_1" data-name="Capa 1" xmlns="http://www.w3.org/2000/svg" xmlns:xlink="http://www.w3.org/1999/xlink" viewBox="0 0 173.89 147.18"><defs><style>.cls-1{fill:none;}.cls-2{fill:#285680;}.cls-3{fill:#805333;}.cls-4{fill:#3b97d3;}.cls-5{fill:#2980ba;}.cls-6{fill:#f9eab0;}.cls-7{clip-path:url(#clip-path);}.cls-8{fill:#4482c3;}</style><clipPath id="clip-path"><rect class="cls-1" width="173.89" height="147.18"/></clipPath></defs><title>AirportTransfers_vector</title><path class="cls-2" d="M104.94,18.06V32.89h-15V18.06a3,3,0,0,0-3-3H51a3,3,0,0,0-3,3V32.89H33V18.06a18,18,0,0,1,18-18h36a18,18,0,0,1,18,18Zm0,0"/><path class="cls-3" d="M9,116.84H30V129a6,6,0,0,1-6,6H15a6,6,0,0,1-6-6Zm0,0"/><path class="cls-4" d="M134.92,36V64.61l-12.29,7.11-20.72-8.84a14.87,14.87,0,0,0-13.64.72l-5.22,3A15,15,0,0,0,75.61,78.7a14.23,14.23,0,0,0,0,2.25L74,80.08a15,15,0,0,0-14.57.18L52.95,84a15.13,15.13,0,0,0-5.46,20.51L58.16,123H6a6,6,0,0,1-6-6V36a6,6,0,0,1,6-6H128.92a6,6,0,0,1,6,6Zm0,0"/><path class="cls-5" d="M33,75v48H27V75a3,3,0,1,1,6,0Zm0,0"/><path class="cls-5" d="M33,30V46.29a3,3,0,1,1-6,0V30Zm0,0"/><path class="cls-6" d="M24,75H36a3,3,0,0,0,3-3V55.28a3,3,0,0,0-.88-2.12l-6-6a3,3,0,0,0-4.24,0l-6,6A3,3,0,0,0,21,55.28V72a3,3,0,0,0,3,3Zm0,0"/><g class="cls-7"><path class="cls-2" d="M123.41,85.08l-15.2,8.78L106,95.16,88.75,82a3,3,0,0,1,.33-5l5.22-3a3,3,0,0,1,2.7-.15Zm0,0"/><path class="cls-8" d="M167.09,91.26,140.85,106.4l-6.71,3.87L131.23,128,130.6,132a3,3,0,0,1-1.47,2.13l-5.16,3a3,3,0,0,1-4.53-2.31L118,119.62l-5.73,3.3-14.51,8.36a18.07,18.07,0,0,1-5.67,2.1,17.45,17.45,0,0,1-6.24,0l-2.07,7.31a2.8,2.8,0,0,1-1.29,1.41l-5.91,4.26A3,3,0,0,1,72,143.82L72,123v-.15L57.87,98.49A3.06,3.06,0,0,1,59,94.35l6.42-3.69a3,3,0,0,1,2.91,0L92,103.19l13.94-8,2.25-1.29,15.2-8.78,11.51-6.66L153,68a14,14,0,0,1,18.35,3.57,13.6,13.6,0,0,1-4.26,19.7Zm0,0"/></g><path class="cls-2" d="M118,119.63l-5.73,3.3-1.89-19.52a2.94,2.94,0,0,1,1.62-3,3.22,3.22,0,0,1,1.08-.33,3,3,0,0,1,3.26,2.7Zm0,0"/><path class="cls-2" d="M137.35,90.54a3,3,0,0,1,3.45-2.49,3,3,0,0,1,2.49,3.45l-2.43,14.9-6.72,3.87Zm0,0"/><path class="cls-2" d="M97.3,114.89l-5.22,18.5a17.44,17.44,0,0,1-6.24,0l5.7-20.15a3,3,0,1,1,5.76,1.62Zm0,0"/></svg>