<svg id="Capa_1" data-name="Capa 1" xmlns="http://www.w3.org/2000/svg" viewBox="0 0 197.97 156.77"><defs><style>.cls-1{fill:none;}.cls-2{fill:#bc7528;}.cls-3{fill:#d19a4a;}.cls-4{fill:#d8a664;}.cls-5{fill:#f7941e;}.cls-6{fill:#8c8279;}.cls-7{fill:#594a42;}.cls-8{fill:#dcc172;}.cls-9{fill:#f7e8c9;}.cls-10{fill:#607d8b;}.cls-11{fill:#546d79;}</style></defs><title>Cargo Transfer_vector</title><path class="cls-1" d="M176.25,41.58,167.53,0l8.71,41.58Z"/><polygon class="cls-1" points="158.46 1.88 57.95 22.78 57.98 22.94 167.53 0 158.46 1.88"/><polygon class="cls-1" points="57.98 22.94 78.96 123.87 79.11 123.84 57.98 22.94"/><path class="cls-2" d="M125.49,114.2a12.74,12.74,0,0,1-2.79-4l-40.4,8.46L63,26.37h0v0l.16,0L62,25.49,82.8,21.14l1.11.84,10.29-2.15,0-.09,3-.63v.06l3.55-.74v0l12-2.51,0-.09,3-.63,0,.09h0v0l3.56-.74v0l12-2.5,0-.09,3-.63v.07l3.55-.75v0l12-2.5,0-.09,3-.63,0,.09h0v0l3.55-.74v0l8-1.69L172.45,44a18.34,18.34,0,0,1,3.79-2.37L167.53,0,58,22.94l21.13,100.9Z"/><polygon class="cls-3" points="119.62 48.99 112.71 15.96 100.74 18.46 104.79 37.77 119.62 48.99"/><polygon class="cls-3" points="115.7 15.33 115.7 15.33 122.25 46.62 115.7 15.33"/><path class="cls-3" d="M120,110.57l-3.55.74,0,.15-3,.63L101.7,55.68,87,44.46l14.65,70-3.55.74L82.56,41.1,82.44,41,98,115.34,95,116,78.71,38.18,67.35,29.52l18.47,88.2-3.55.74L63,26.37h0L82.3,118.63l40.4-8.46a12.19,12.19,0,0,1-.54-1.5,13.07,13.07,0,0,1,2-11.37A14.83,14.83,0,0,1,128.85,93l-1.51-7.23-.59-.15c-4.94-1.48-8.37-4.64-9.78-8.77a12.8,12.8,0,0,1,.32-9.35l-7.46-5.68Z"/><path class="cls-3" d="M140,91l.56.08,1.07-1.68-7.09-1.8.68,3.25A16.39,16.39,0,0,1,140,91Z"/><polygon class="cls-3" points="144.03 58.34 144.03 58.34 135.56 17.9 144.03 58.34"/><polygon class="cls-3" points="119.25 14.59 127.74 55.13 132.16 58.47 140.91 58.37 131.21 12.08 119.25 14.59"/><polygon class="cls-3" points="94.19 19.83 83.91 21.99 96.67 31.63 94.19 19.83"/><polygon class="cls-3" points="152.72 7.58 163.01 56.7 163.01 56.7 152.72 7.58 152.72 7.58"/><polygon class="cls-3" points="137.76 10.71 147.73 58.3 160.18 58.16 149.72 8.21 137.76 10.71"/><path class="cls-3" d="M156.27,6.83l9.56,45.65,3.4-5.08A16.17,16.17,0,0,1,172.45,44l-8.13-38.8Z"/><polygon class="cls-2" points="98 115.34 82.44 41.01 78.72 38.18 95 115.97 98 115.34"/><polygon class="cls-2" points="116.51 111.46 116.48 111.31 116.48 111.31 105.42 58.51 101.7 55.67 113.51 112.09 116.51 111.46"/><polygon class="cls-2" points="100.38 34.44 97.19 19.18 97.19 19.18 97.17 19.12 94.18 19.75 94.19 19.83 96.67 31.63 100.38 34.44"/><polygon class="cls-2" points="123.33 51.8 122.25 46.62 115.7 15.33 115.68 15.24 112.69 15.87 112.71 15.96 119.62 48.99 123.33 51.8"/><path class="cls-2" d="M131.7,91.73l-1.06-5.08-3.3-.84L128.85,93A16,16,0,0,1,131.7,91.73Z"/><polygon class="cls-4" points="85.82 117.73 67.35 29.52 63.13 26.31 62.98 26.34 62.98 26.37 82.27 118.47 85.82 117.73"/><polygon class="cls-4" points="101.62 114.42 86.97 44.46 82.56 41.1 98.07 115.16 101.62 114.42"/><polygon class="cls-4" points="100.38 34.44 104.79 37.77 100.74 18.46 100.74 18.44 97.19 19.18 97.19 19.18 100.38 34.44"/><polygon class="cls-4" points="116.48 111.31 120.03 110.57 109.83 61.87 105.42 58.51 116.48 111.31 116.48 111.31"/><polygon class="cls-4" points="123.33 51.8 127.74 55.13 119.25 14.59 119.25 14.56 115.69 15.3 115.7 15.33 122.25 46.62 123.33 51.8"/><path class="cls-4" d="M133.82,91.13c.47-.1.94-.17,1.41-.22l-.68-3.25-3.92-1,1.06,5.08A16.81,16.81,0,0,1,133.82,91.13Z"/><polygon class="cls-4" points="137.76 10.69 134.21 11.43 135.56 17.9 144.03 58.34 147.73 58.3 137.76 10.71 137.76 10.69"/><polygon class="cls-4" points="156.27 6.81 152.72 7.55 152.72 7.58 163.01 56.7 165.83 52.48 156.27 6.83 156.27 6.81"/><polygon class="cls-2" points="134.21 11.43 134.19 11.37 131.19 11.99 131.21 12.08 140.91 58.37 144.03 58.34 135.56 17.9 134.21 11.43"/><polygon class="cls-2" points="152.7 7.49 149.7 8.12 149.72 8.21 160.18 58.16 162.04 58.14 163.01 56.7 152.72 7.58 152.7 7.49"/><path class="cls-2" d="M123.33,51.8,119.62,49,104.79,37.77l-4.4-3.33-3.72-2.81L83.91,22l-1.11-.84L62,25.49l1.09.83,4.22,3.21,11.37,8.65L82.44,41l.12.09L87,44.46,101.7,55.68l3.72,2.83,4.41,3.36,7.46,5.68a14.45,14.45,0,0,1,1.33-2.42L66.62,26l13.14-2.75L127.38,59c.23-.06.46-.13.7-.18a16.59,16.59,0,0,1,3.09-.34h1l-4.41-3.34Z"/><path class="cls-4" d="M79.76,23.27,66.62,26l52,39.11c.08-.12.15-.25.23-.37A14.72,14.72,0,0,1,127.38,59Z"/><path class="cls-5" d="M4.4,31.27A5.5,5.5,0,1,0,6.59,42l22.69-4.62-2-10.81Z"/><path class="cls-6" d="M153.28,122.1c-1.65-8.07-10.89-10.47-19.31-9.27L78.83,124.06,66.18,119,50.51,42c-1.25-6.13-4.07-10.63-8.37-13.36A18.36,18.36,0,0,0,28.81,26.3l-1.51.31,2,10.81,1.9-.39h0a7.59,7.59,0,0,1,5.12.9C38,39,39.12,41.11,39.74,44.17L56.6,126.93l21.19,8.55,57.88-11.79c2.59-.34,6,0,6.87.7a5.5,5.5,0,0,0,10.75-2.3Z"/><circle class="cls-7" cx="71.24" cy="130" r="26.77" transform="translate(-24.51 16.84) rotate(-11.51)"/><circle class="cls-8" cx="71.24" cy="129.99" r="13.39" transform="translate(-24.5 16.83) rotate(-11.51)"/><ellipse class="cls-9" cx="65.75" cy="127.22" rx="6.24" ry="4.63" transform="translate(-77.46 128.1) rotate(-63.02)"/><path class="cls-10" d="M157.2,125.78l-.53.09a6.87,6.87,0,0,1-5.49-1.72l-7.79-7L133,112.28a6.89,6.89,0,0,1-2.89-10,7.06,7.06,0,0,1,7.41-3.07l6.12,1.29L153,84.91l-25-7.25a7.18,7.18,0,0,1-4.59-4.5,7.07,7.07,0,0,1,.79-6.18,6.49,6.49,0,0,1,5.5-2.94l35.51.14,9.38-15.28a12,12,0,0,1,15.1-3.24A11,11,0,0,1,194,52.86a10.47,10.47,0,0,1-1.28,7.93h0L182.38,75.54l15,32.77a6.46,6.46,0,0,1-.47,6.3,7.11,7.11,0,0,1-11.13,1L168.29,94.89l-10.5,14.81,3.62,5.11a7.08,7.08,0,0,1,.14,8,6.91,6.91,0,0,1-4.35,3Zm32.88-14.13v0Zm-8-35.71Zm.07-.86v0s0,0,0,0ZM129.6,72h0Zm36-7.87h0Zm23.78-5.67h0Zm0,0"/><path class="cls-11" d="M129.62,72h0Zm36-7.86h0Zm16.08-19.71-.41.09a10.47,10.47,0,0,0-6.76,4.34l-9.38,15.28L129.65,64a6.55,6.55,0,0,0-1.4.14,6.46,6.46,0,0,0-4.1,2.8,7.09,7.09,0,0,0-.79,6.18,7.18,7.18,0,0,0,4.59,4.5l25,7.25-9.39,15.56-6.12-1.29a7.08,7.08,0,0,0-7.41,3.07,6.89,6.89,0,0,0,2.89,10L143.11,117l46.69-71.2-.16-.11a10.35,10.35,0,0,0-7.91-1.2Zm0,0"/></svg>