<svg id="Capa_1" data-name="Capa 1" xmlns="http://www.w3.org/2000/svg" xmlns:xlink="http://www.w3.org/1999/xlink" viewBox="0 0 168.83 168.83"><defs><style>.cls-1{fill:none;}.cls-2{fill:#805333;}.cls-3{fill:#3b97d3;}.cls-4{fill:#285680;}.cls-5{fill:#2980ba;}.cls-6{clip-path:url(#clip-path);}.cls-7{fill:#f9eab0;}.cls-8{fill:#e64c3c;}.cls-9{fill:#f0c419;}.cls-10{fill:#f3d55b;}.cls-11{fill:#f29c1f;}</style><clipPath id="clip-path"><rect class="cls-1" width="168.83" height="168.83"/></clipPath></defs><title>City Transfers_vector</title><path class="cls-2" d="M8.73,119.34H29.11v5.82A5.82,5.82,0,0,1,23.29,131H14.55a5.82,5.82,0,0,1-5.82-5.82Zm0,0"/><path class="cls-3" d="M131,34.93v12c-1-.12-2.12-.2-3.17-.26s-1.81-.06-2.68-.06a55.35,55.35,0,0,0-55.28,55.31,68.49,68.49,0,0,0,2.33,17.47H5.82A5.84,5.84,0,0,1,0,113.52V34.93a5.84,5.84,0,0,1,5.82-5.82H125.17A5.84,5.84,0,0,1,131,34.93Zm0,0"/><path class="cls-4" d="M101.88,17.46V29.11H87.32V17.46a2.91,2.91,0,0,0-2.91-2.91H49.48a2.91,2.91,0,0,0-2.91,2.91V29.11H32V17.46A17.46,17.46,0,0,1,49.48,0H84.41a17.46,17.46,0,0,1,17.46,17.46Zm0,0"/><path class="cls-5" d="M32,72.77v46.57H26.2V72.77a2.91,2.91,0,0,1,5.82,0Zm0,0"/><path class="cls-5" d="M32,29.11V44.88a2.91,2.91,0,1,1-5.82,0V29.11Zm0,0"/><g class="cls-6"><path class="cls-7" d="M23.29,72.77H34.93a2.91,2.91,0,0,0,2.91-2.91V53.6A2.91,2.91,0,0,0,37,51.54l-5.82-5.82a2.91,2.91,0,0,0-4.12,0l-5.82,5.82a2.91,2.91,0,0,0-.85,2.06V69.86a2.91,2.91,0,0,0,2.91,2.91Zm0,0"/><path class="cls-8" d="M168.51,107.7C165,139.63,134,163.94,126.68,168.39a2.89,2.89,0,0,1-3.06,0c-6.4-4-31-22.76-39.33-49a57.6,57.6,0,0,1-2.79-17.47,43.66,43.66,0,0,1,45.76-43.6c1.25.06,2.5.17,3.73.35a44.59,44.59,0,0,1,37.52,49.08Zm0,0"/></g><path class="cls-9" d="M125.17,151.36a2.91,2.91,0,0,1-1.62-.49l-8.73-5.82a2.91,2.91,0,0,1,3.23-4.84l7.12,4.75,7.12-4.75a2.91,2.91,0,0,1,3.23,4.84l-8.73,5.82a2.91,2.91,0,0,1-1.61.48Zm0,0"/><path class="cls-10" d="M151.36,101.88a26.2,26.2,0,1,1-26.2-26.2,26.2,26.2,0,0,1,26.2,26.2Zm0,0"/><path class="cls-11" d="M125.17,131a29.11,29.11,0,1,1,29.11-29.11A29.11,29.11,0,0,1,125.17,131Zm0-52.39a23.29,23.29,0,1,0,23.29,23.29,23.29,23.29,0,0,0-23.29-23.29Zm0,0"/></svg>