<svg id="OBJECTS" xmlns="http://www.w3.org/2000/svg" viewBox="0 0 251.43 116.75"><defs><style>.cls-1,.cls-2,.cls-3{fill:#429914;}.cls-1{fill-rule:evenodd;}.cls-2{font-size:26.97px;font-family:Verdana;}</style></defs><path class="cls-1" d="M107.65,77.67c0-5.62-.49-11.24-.79-16.86a1.47,1.47,0,0,0-.45-.76,5.36,5.36,0,0,0-.69-.57l1-.49c-.11-1.76-.22-3.58-.32-5.4-.33-6.21-.63-12.43-1-18.65A16.81,16.81,0,0,0,101,24.24a22.67,22.67,0,0,0-6.85-4.6c-6.36-3.19-12.67-6.5-19-9.73-.76-.38-1.56-.68-2.36-1s-1.42-.72-2.14-1a4,4,0,0,0-.89-.67c-.7-.35-1.52-.44-2.21-.8-3.28-1.69-6.42-3.7-9.81-5.1A15.83,15.83,0,0,0,42.77,2.55a1.84,1.84,0,0,0-.51.46c-1.19.71-2.35,1.49-3.48,2.31-.29.18-.58.36-.86.55a2.07,2.07,0,0,0-.77.27c-3.54,2.26-7,4.63-10.53,6.94-2.61,1.71-5.24,3.38-7.85,5.09-3.35,2.2-6.65,4.48-10.06,6.61C3.07,28.3-.13,33.23,0,40c.1,4.84.49,9.67.74,14.51q.27,5,.52,10a16.24,16.24,0,0,0,.31,4.75c0,.39,0,.78.05,1.17a4.32,4.32,0,0,0,0,1C1.9,75,2,78.51,2.22,82.06a16.39,16.39,0,0,0,8.53,13.67c5.12,3,10.56,5.41,15.86,8.08l14.56,7.37c2.77,1.41,5.47,3,8.34,4.19,5.84,2.44,11.43,1.54,16.65-1.87,6.89-4.49,13.73-9,20.6-13.58,4.67-3.07,9.44-6,14-9.24A15.28,15.28,0,0,0,107.65,77.67Zm-7,11c-2.86,2.17-6,4-9,6q-6.7,4.41-13.41,8.82c-4.18,2.74-8.4,5.41-12.54,8.2-5.26,3.54-10.7,4.46-16.53,1.51-2.6-1.31-5.22-2.57-7.82-3.89-4.91-2.48-9.8-5-14.69-7.46-4.55-2.31-9.07-4.66-13.64-6.89-5.4-2.64-8.48-6.85-8.94-12.86-.34-4.52-.54-9-.81-13.58A16.25,16.25,0,0,0,3,65.29h0c0-1.07,0-1.85-.07-2.63-.41-7.49-.87-15-1.22-22.49A14,14,0,0,1,6.65,28.53a92.09,92.09,0,0,1,8.16-5.72c0-.29,0-.68,0-.73A10.22,10.22,0,0,0,17,21.39c3.84-2.45,7.62-5,11.47-7.43,1-.66,2.2-1.16,2.65-2.09.41-.27.81-.56,1.2-.86a2.54,2.54,0,0,0,1.12-.25c3.11-1.93,6.17-3.95,9.24-6,4-2.66,8.43-3.84,13.1-2.27,2.93,1,5.61,2.67,8.47,3.9,1.39.61,2.67,1.65,4.24,2A24.86,24.86,0,0,0,72,10.26a2.48,2.48,0,0,0,1,.64c1.42.55,2.72,1.42,4.13,2a6.85,6.85,0,0,0,1.59.41l1.23.49a1.35,1.35,0,0,0,.48.83c2.34,1.25,4.74,2.37,7.07,3.51l0,0a57.57,57.57,0,0,0,6,3,4.54,4.54,0,0,0,1.09.64c4.7,2.18,7.89,5.71,8.69,10.91.52,3.46.62,7,.82,10.48.6,10.61,1.22,21.22,1.72,31.84.15,3.24.43,6.61-1.75,9.45C103,85.93,102,87.61,100.63,88.67Z"/><path class="cls-1" d="M67,12.47c1.09.49,2.22.93,3.29,1.48,6.8,3.44,13.63,6.83,20.37,10.39,2.67,1.41,5.69,2.54,7.19,5.46a13.2,13.2,0,0,1,1.73,4.82c.58,8,.92,15.94,1.35,23.91l-.4.14a5.41,5.41,0,0,1-.4-1.32c-.24-4.14-.43-8.29-.64-12.43-.17-3.26-.29-6.53-.53-9.79-.35-4.86-3.33-7.67-7.5-9.66-4.73-2.26-9.37-4.71-14-7.07l-9-4.55c-.55-.28-1.07-.62-1.61-.93Z"/><path class="cls-1" d="M77.23,99.06c-.59.46-1.16,1-1.79,1.38-4.7,3-9.33,6.2-14.12,9.09a10.16,10.16,0,0,1-10.12.22c-6.79-3.35-13.52-6.81-20.28-10.23C27.48,97.78,24,96,20.61,94.27a1.86,1.86,0,0,1-.9-1.2c1.26.61,2.54,1.2,3.79,1.83q7.42,3.72,14.83,7.48c4.32,2.19,8.63,4.41,13,6.6a10.19,10.19,0,0,0,10.7-.61c4.43-2.83,8.79-5.77,13.18-8.65.57-.38,1.19-.69,1.79-1Z"/><path class="cls-1" d="M100.68,59.28a4.31,4.31,0,0,1,.29.95c.33,5.68.8,11.36.89,17,.07,4.1-1.91,7.25-5.44,9.46-3.33,2.07-6.56,4.29-9.84,6.44l-7.7,5a1.1,1.1,0,0,1-1,0c.46-.37.88-.8,1.37-1.12,5.53-3.59,11.08-7.15,16.6-10.75a10.91,10.91,0,0,0,5.3-10.72c-.4-5.08-.57-10.17-.84-15.26,0-.33,0-.65,0-1Z"/><path class="cls-1" d="M7.13,61.4a6.21,6.21,0,0,1-.28-1.17C6.47,53.52,6,46.81,5.79,40.1a10.54,10.54,0,0,1,5.45-10c2.75-1.64,5.36-3.49,8-5.25l.35.45c-1,.72-2,1.46-3.07,2.15-1.94,1.28-4,2.44-5.84,3.82C7.46,33.69,6.25,37,6.51,41c.4,6.32.71,12.63,1,18.95,0,.46,0,.92,0,1.38Z"/><path class="cls-1" d="M63.84,11.55c-1.39-.7-2.77-1.43-4.18-2.09a40.51,40.51,0,0,0-5.83-2.54c-4.26-1.2-7.6,1-10.91,3.3s-6.76,4.41-10.15,6.59l-.29-.38c1.07-.78,2.11-1.59,3.21-2.31C38.93,12,42.2,9.94,45.42,7.81a10.25,10.25,0,0,1,9.77-1.26c2.84,1.11,5.5,2.69,8.23,4.08a4.09,4.09,0,0,1,.67.51Z"/><path class="cls-1" d="M8,70c.07.42.17.84.2,1.27.29,4,.4,8,.89,12,.42,3.46,2.77,5.69,5.74,7.28l2.41,1.29-.3.56a37.72,37.72,0,0,1-4.5-2.49,10.32,10.32,0,0,1-4.33-7.82c-.27-3.84-.42-7.68-.62-11.53A1.38,1.38,0,0,1,7.61,70Z"/><path class="cls-1" d="M22.22,23l6.57-4.37.38.57-6.58,4.32Z"/><path class="cls-1" d="M7.73,63.28c.08,1.57.16,3.14.26,4.85C7.1,67.4,6.84,64.59,7.73,63.28Z"/><path class="cls-1" d="M65.71,16.86c1,.45,2,.85,3,1.34,6.15,3.11,12.33,6.18,18.42,9.4,2.42,1.27,5.14,2.3,6.5,4.93a11.74,11.74,0,0,1,1.56,4.36c.53,7.2.84,14.42,1.23,21.63l-.36.13a4.88,4.88,0,0,1-.37-1.2c-.21-3.75-.38-7.49-.57-11.24-.15-3-.26-5.91-.48-8.85-.32-4.4-3-6.95-6.79-8.75-4.28-2-8.47-4.25-12.7-6.39L67,18.11c-.5-.25-1-.56-1.46-.84C65.58,17.13,65.65,17,65.71,16.86Z"/><path class="cls-1" d="M75,95.17c-.54.42-1,.88-1.62,1.25-4.24,2.76-8.44,5.61-12.77,8.22a9.17,9.17,0,0,1-9.15.19c-6.14-3-12.23-6.16-18.34-9.25C30,94,26.88,92.44,23.78,90.84A1.7,1.7,0,0,1,23,89.76c1.15.55,2.3,1.08,3.43,1.64l13.41,6.77c3.91,2,7.81,4,11.72,6a9.19,9.19,0,0,0,9.67-.55c4-2.56,8-5.22,11.92-7.83.52-.34,1.08-.62,1.62-.92Z"/><path class="cls-1" d="M96.2,59.2a3.28,3.28,0,0,1,.26.86c.3,5.13.72,10.27.81,15.41A9.53,9.53,0,0,1,92.34,84c-3,1.87-5.93,3.88-8.89,5.82-2.32,1.52-4.64,3-7,4.55a1,1,0,0,1-.89,0,13.43,13.43,0,0,1,1.24-1c5-3.25,10-6.46,15-9.72a9.86,9.86,0,0,0,4.79-9.7c-.36-4.59-.51-9.2-.75-13.79a8.75,8.75,0,0,1,0-.89Z"/><path class="cls-1" d="M11.6,61.11a5.63,5.63,0,0,1-.25-1.06c-.35-6.07-.78-12.13-1-18.2a9.56,9.56,0,0,1,4.93-9.05c2.49-1.48,4.85-3.15,7.27-4.74l.31.4c-.92.65-1.83,1.33-2.77,1.95-1.76,1.16-3.6,2.2-5.29,3.46-2.93,2.18-4,5.21-3.8,8.82.36,5.71.65,11.43,1,17.14a10.48,10.48,0,0,1,0,1.25Z"/><path class="cls-1" d="M62.88,16c-1.26-.63-2.5-1.3-3.77-1.89a37.18,37.18,0,0,0-5.28-2.3C50,10.76,47,12.7,44,14.83s-6.11,4-9.18,6l-.25-.35c1-.7,1.9-1.43,2.9-2.09,2.92-1.91,5.88-3.77,8.8-5.7a9.23,9.23,0,0,1,8.83-1.14c2.57,1,5,2.43,7.45,3.68a4.43,4.43,0,0,1,.6.47Z"/><path class="cls-1" d="M12.36,68.9c.06.38.15.76.18,1.14.26,3.61.36,7.23.8,10.81.39,3.14,2.5,5.15,5.2,6.59l2.17,1.16-.27.51a34.89,34.89,0,0,1-4.07-2.25,9.31,9.31,0,0,1-3.91-7.07c-.25-3.47-.39-7-.56-10.43a1.29,1.29,0,0,1,.13-.44Z"/><path class="cls-1" d="M25.24,26.37l6-3.95c.11.18.23.35.34.52l-6,3.9C25.46,26.69,25.35,26.53,25.24,26.37Z"/><path class="cls-1" d="M12.14,62.81c.07,1.42.15,2.84.23,4.39C11.57,66.54,11.33,64,12.14,62.81Z"/><path class="cls-1" d="M74.72,35.43c3.89.9,7.93,1,11.72,2.43a8.39,8.39,0,0,0,5.45.16c3.07-.89,6.3-.34,9.45-.66,2.11-.21,4.27-.92,6.42,0a1.45,1.45,0,0,0,1.06-.22,28.47,28.47,0,0,1,6.71-2.3c6.45-1.68,12.64-4.21,19.16-5.71a69,69,0,0,1,20.86-1.48,83.06,83.06,0,0,1,22.72,5.18c.36.13.74.16.87.7a9.21,9.21,0,0,1-5.35-.15,74,74,0,0,0-26.79-4,55.2,55.2,0,0,0-13.43,2c-4.85,1.4-9.66,2.9-14.47,4.46a79.42,79.42,0,0,1-18.45,3.53,91.18,91.18,0,0,1-25.95-2,2.67,2.67,0,0,1-1.2-.62c.43-.45,1.65-.26,1.24-1.38Z"/><path class="cls-1" d="M181.07,60a95.51,95.51,0,0,0-16.89-4.71,71.25,71.25,0,0,0-17.74-.81,85,85,0,0,0-19.22,4.38,112.86,112.86,0,0,1-19,4.88,83.72,83.72,0,0,1-19.44.44,97.2,97.2,0,0,1-12.22-2c-.47-.1-1.12,0-1.22-.63s.63-.65,1-.86c1.23-.66,2.45-.07,3.63.16a84.79,84.79,0,0,0,24,1.28c4.35-.4,8.57-1.46,12.86-2.12,1.88-.29,3.76.63,5.66-.38,2.4-1.29,5-2.18,7.42-3.47,2.2-1.19,4.46-1.08,6.81-1.11,1.94,0,4,0,5.39-1.91.54-.75,1.75-.49,2.63-.58a68,68,0,0,1,24.12,1.71c3.67,1,7.17,2.6,10.75,3.93A2.46,2.46,0,0,1,181.07,60Z"/><path class="cls-1" d="M117,85.26c5.25-1,10.81-3.2,16.53-4.94a71.81,71.81,0,0,1,36.2-1.49,80.51,80.51,0,0,1,16.73,5.35c.85.38,1.31.66,1,1.58-.4,1.09-1.12.46-1.67.22a87.25,87.25,0,0,0-19-5.68,67.29,67.29,0,0,0-17.35-.91,78,78,0,0,0-22.8,5.36c-4.64,1.87-9.61,2.61-14.47,3.66-.27.06-.63.29-.8-.11s.17-.62.43-.9C113,86.05,114.7,85.88,117,85.26Z"/><path class="cls-1" d="M107.84,50.94a3.16,3.16,0,0,1,2.91-2.43c6.32-.74,12.14-3.22,18.14-5.12a74.56,74.56,0,0,1,14.73-3.24,70,70,0,0,1,16.49.25,87.82,87.82,0,0,1,20.42,5.3c1,.38,1.94.79,2.91,1.18.66.26,1.09.57.66,1.39s-.83.7-1.52.41A92,92,0,0,0,167.8,43.8a77.48,77.48,0,0,0-17.82-2,65.57,65.57,0,0,0-19.43,3.25c-5.24,1.62-10.52,3.11-15.78,4.71A29.8,29.8,0,0,1,107.84,50.94Z"/><path class="cls-1" d="M122,71.51a91.24,91.24,0,0,1,23-6.3,75.13,75.13,0,0,1,32.76,3.65c2.64.87,5.21,1.92,7.83,2.88a1,1,0,0,1,.69,1.49c-.32.91-.86.63-1.47.38a86.6,86.6,0,0,0-19.7-5.87,66.33,66.33,0,0,0-17-.81,85.27,85.27,0,0,0-20.35,4.49C126.17,72,123.93,71.76,122,71.51Z"/><path class="cls-1" d="M90.11,76.55a57.34,57.34,0,0,1-8-.92,8.57,8.57,0,0,1-4.86-2,2.61,2.61,0,0,0-2.47-.43,6.86,6.86,0,0,1-1.08.28,2.42,2.42,0,0,1-2-.6.92.92,0,0,1,0-1.21c.58-.79,1.26-.18,1.86,0a116.41,116.41,0,0,0,16.53,3.16c.62.08,1.08.16,1.06,1S90.63,76.49,90.11,76.55Z"/><path class="cls-1" d="M107.34,89a73.73,73.73,0,0,1-14.4.34c-.66,0-1-.33-1-1.06s.29-1.11,1.16-1a61.54,61.54,0,0,0,14-.24c.52-.07,1.33-.34,1.46.63C108.7,88.13,108,88.85,107.34,89Z"/><path class="cls-1" d="M110.6,73.82c-.54,2.67-2.57,2.66-4.39,2.82-2.47.21-4.94.3-7.41.4a9.31,9.31,0,0,1-1.67-.11c-.74-.1-.83-.69-.83-1.26s.61-.48,1-.51c3-.21,5.93-.47,8.9-.56A30.28,30.28,0,0,0,110.6,73.82Z"/><path class="cls-1" d="M73.86,47.44l9,1.75a2.11,2.11,0,0,1-2.28,1.62C77.38,50.73,74.91,49.52,73.86,47.44Z"/><path class="cls-1" d="M94,51.83a18.1,18.1,0,0,1-4.93,0,1.47,1.47,0,0,1-1.44-1.45c0-.95,1-.71,1.58-.59C90.9,50.17,93.08,49.26,94,51.83Z"/><path class="cls-1" d="M180,33.49c1.14.43,2,.74,2.9,1.11a.55.55,0,0,1,.32.76c-.13.32-.47.5-.74.29C181.73,35,180.61,34.81,180,33.49Z"/><path class="cls-1" d="M72.55,85.11c.16-.46-.15-1.16.49-1.41a1.15,1.15,0,0,1,1.41.57c.32.59-.26,1-.67,1.31S72.85,85.65,72.55,85.11Z"/><text class="cls-2" transform="translate(96.77 102.73) rotate(-0.52)">DELHI/NCR</text><path class="cls-3" d="M33.2,46.06l-2.76-.45a1.28,1.28,0,0,0-1.05,2.22l2.17,1.91a25.25,25.25,0,0,0,5.77,3.82l3.89,1.85.54,4.42L40,59,39,60.9l1.93.93a5.18,5.18,0,0,0,1,0l.71,5.79L41,66.76l-.89,1.85L42,69.5a6.12,6.12,0,0,0,1,0l.47,3.87,2.86,3.1L49,59.15l15.25,7.28a7.19,7.19,0,0,0,4.14.61l.08,0,.22,7.76L71.37,76l1.81-8.56L78.7,60.7l-2.65-1.27-6.11,4.66h0a7.15,7.15,0,0,0-3.26-3.17l-15.07-7.2L63.37,40.65l-4.22-.27-3.3,2.06a5.89,5.89,0,0,0-.59-.77l-1.86-.89-.88,1.85,1.71.82-4.94,3.09a5.81,5.81,0,0,0-.63-.83l-1.93-.93-.93,1.94,1.82.86L43.82,50l0,.06L40,48.19A24.94,24.94,0,0,0,33.2,46.06Z"/></svg>