<svg id="OBJECTS" xmlns="http://www.w3.org/2000/svg" viewBox="0 0 266.42 116.75"><defs><style>.cls-1,.cls-2,.cls-3{fill:#fff;}.cls-1{fill-rule:evenodd;}.cls-2{font-size:26.97px;font-family:Verdana, Verdana;}</style></defs><title>Hyderabad_Stamps</title><path class="cls-1" d="M107.65,77.67c0-5.62-.49-11.24-.79-16.86a1.54,1.54,0,0,0-.46-.76,5.25,5.25,0,0,0-.68-.57l1-.49c-.1-1.76-.22-3.58-.31-5.4-.33-6.22-.63-12.43-1-18.65A16.81,16.81,0,0,0,101,24.24a22.52,22.52,0,0,0-6.85-4.6c-6.36-3.19-12.67-6.5-19-9.73a24.71,24.71,0,0,0-2.36-1c-.7-.37-1.41-.72-2.14-1a4,4,0,0,0-.89-.67c-.7-.34-1.52-.44-2.21-.79-3.28-1.69-6.41-3.7-9.81-5.1A15.85,15.85,0,0,0,42.77,2.55a2,2,0,0,0-.51.47c-1.19.71-2.35,1.48-3.47,2.3-.29.18-.58.36-.87.55a2.14,2.14,0,0,0-.77.27c-3.55,2.26-7,4.63-10.54,6.94-2.6,1.71-5.23,3.38-7.84,5.09-3.36,2.2-6.66,4.49-10.06,6.61C3.07,28.3-.13,33.23,0,40c.09,4.84.48,9.67.74,14.5.18,3.31.35,6.63.52,10a16.09,16.09,0,0,0,.3,4.75q0,.58.05,1.16a4.24,4.24,0,0,0,0,1c.31,3.54.41,7.1.63,10.65a16.38,16.38,0,0,0,8.52,13.68c5.12,3,10.56,5.4,15.86,8.08l14.56,7.37c2.78,1.41,5.48,3,8.34,4.2,5.84,2.44,11.43,1.54,16.65-1.87,6.89-4.5,13.73-9.06,20.6-13.58,4.67-3.08,9.44-6,14-9.24A15.33,15.33,0,0,0,107.65,77.67Zm-7,11c-2.86,2.17-6,4-9,6q-6.71,4.4-13.41,8.81c-4.18,2.74-8.4,5.41-12.55,8.21-5.25,3.54-10.69,4.46-16.52,1.51-2.6-1.31-5.23-2.58-7.83-3.89-4.9-2.48-9.79-5-14.69-7.46-4.54-2.3-9.06-4.65-13.64-6.89-5.4-2.64-8.48-6.85-8.93-12.86-.34-4.52-.55-9-.81-13.58A15.89,15.89,0,0,0,3,65.29H3c0-1.06,0-1.84-.07-2.62-.41-7.5-.86-15-1.21-22.49A14,14,0,0,1,6.65,28.53a93.91,93.91,0,0,1,8.16-5.72c0-.29,0-.68,0-.74A9.68,9.68,0,0,0,17,21.39c3.84-2.45,7.62-5,11.47-7.43,1-.66,2.2-1.16,2.66-2.08.4-.28.8-.57,1.19-.87a2.38,2.38,0,0,0,1.12-.25c3.11-1.93,6.18-3.95,9.24-6,4-2.66,8.44-3.84,13.11-2.27,2.93,1,5.61,2.68,8.46,3.91,1.4.6,2.67,1.65,4.24,2a24.59,24.59,0,0,0,3.44,1.79,2.45,2.45,0,0,0,1,.64c1.42.55,2.72,1.43,4.13,2a7.12,7.12,0,0,0,1.59.4l1.23.5a1.33,1.33,0,0,0,.48.82c2.34,1.25,4.74,2.37,7.07,3.51l0,0a55.77,55.77,0,0,0,6,3,4.6,4.6,0,0,0,1.09.65c4.71,2.18,7.89,5.71,8.69,10.91.53,3.45.62,7,.82,10.47.61,10.61,1.23,21.23,1.73,31.84.15,3.24.43,6.61-1.76,9.45C103,85.93,102,87.61,100.63,88.67Z"/><path class="cls-1" d="M67,12.47c1.1.49,2.22.93,3.29,1.47,6.8,3.44,13.63,6.84,20.37,10.4,2.67,1.41,5.69,2.54,7.19,5.46a13.26,13.26,0,0,1,1.73,4.82c.58,8,.93,15.94,1.36,23.92l-.4.14a5.61,5.61,0,0,1-.41-1.32c-.23-4.14-.42-8.29-.64-12.43-.17-3.26-.29-6.53-.53-9.78-.36-4.86-3.33-7.68-7.51-9.67-4.73-2.25-9.36-4.71-14-7.07l-9-4.55c-.55-.28-1.08-.62-1.62-.93Z"/><path class="cls-1" d="M77.23,99.06c-.6.46-1.17,1-1.8,1.38-4.69,3.05-9.33,6.2-14.12,9.09a10.14,10.14,0,0,1-10.12.21c-6.79-3.35-13.52-6.81-20.28-10.23C27.48,97.78,24,96,20.61,94.27a1.85,1.85,0,0,1-.89-1.2c1.26.61,2.54,1.19,3.79,1.82q7.42,3.73,14.82,7.48c4.32,2.19,8.63,4.41,13,6.6a10.2,10.2,0,0,0,10.7-.61c4.43-2.83,8.78-5.77,13.17-8.65.57-.38,1.19-.69,1.79-1Z"/><path class="cls-1" d="M100.68,59.28a4.2,4.2,0,0,1,.29,1c.33,5.68.79,11.36.89,17,.07,4.09-1.91,7.25-5.45,9.45-3.32,2.08-6.56,4.29-9.83,6.44q-3.85,2.53-7.71,5a1.07,1.07,0,0,1-1,0,15.92,15.92,0,0,1,1.37-1.12c5.53-3.59,11.08-7.14,16.59-10.75a10.9,10.9,0,0,0,5.31-10.72c-.41-5.08-.57-10.17-.84-15.26,0-.33,0-.66,0-1Z"/><path class="cls-1" d="M7.13,61.4a6.71,6.71,0,0,1-.28-1.17C6.47,53.52,6,46.81,5.79,40.1a10.56,10.56,0,0,1,5.46-10c2.74-1.63,5.36-3.49,8-5.25l.35.45c-1,.72-2,1.46-3.07,2.15-1.94,1.28-4,2.44-5.84,3.82C7.46,33.69,6.25,37,6.51,41c.4,6.31.71,12.63,1.05,18.95,0,.46,0,.92,0,1.38Z"/><path class="cls-1" d="M63.84,11.55c-1.39-.7-2.77-1.43-4.18-2.08a40.25,40.25,0,0,0-5.84-2.54c-4.26-1.2-7.59,1-10.91,3.3s-6.76,4.41-10.15,6.59l-.28-.39c1.07-.77,2.11-1.59,3.21-2.31C38.93,12,42.2,9.94,45.42,7.81a10.25,10.25,0,0,1,9.76-1.26c2.84,1.11,5.5,2.69,8.24,4.08a4.36,4.36,0,0,1,.67.51Z"/><path class="cls-1" d="M8,70c.07.42.17.84.2,1.26.29,4,.4,8,.89,12,.43,3.47,2.77,5.69,5.75,7.29l2.41,1.28-.31.57a37.78,37.78,0,0,1-4.49-2.49,10.32,10.32,0,0,1-4.33-7.82c-.27-3.84-.42-7.69-.62-11.53A1.56,1.56,0,0,1,7.61,70Z"/><path class="cls-1" d="M22.22,23l6.57-4.37.38.57-6.58,4.31Z"/><path class="cls-1" d="M7.73,63.28,8,68.13C7.1,67.4,6.84,64.59,7.73,63.28Z"/><path class="cls-1" d="M65.71,16.86c1,.44,2,.84,3,1.33,6.15,3.11,12.33,6.18,18.42,9.4,2.41,1.27,5.14,2.3,6.5,4.94a12,12,0,0,1,1.56,4.36c.52,7.2.84,14.42,1.23,21.63l-.36.13a5,5,0,0,1-.37-1.19c-.21-3.75-.38-7.5-.57-11.24-.15-3-.26-5.9-.48-8.85-.32-4.4-3-6.94-6.79-8.74-4.28-2-8.47-4.26-12.7-6.39L67,18.11c-.5-.25-1-.56-1.46-.84Z"/><path class="cls-1" d="M75,95.17c-.54.42-1.06.88-1.63,1.25-4.24,2.76-8.44,5.61-12.77,8.22a9.17,9.17,0,0,1-9.15.19c-6.14-3-12.23-6.16-18.34-9.25C30,94,26.88,92.44,23.78,90.84A1.68,1.68,0,0,1,23,89.76c1.14.55,2.3,1.08,3.43,1.65q6.71,3.37,13.41,6.77c3.91,2,7.81,4,11.72,6a9.22,9.22,0,0,0,9.68-.55c4-2.56,7.94-5.22,11.91-7.82.52-.34,1.08-.62,1.62-.93Z"/><path class="cls-1" d="M96.2,59.2a3.71,3.71,0,0,1,.26.86c.29,5.14.72,10.27.8,15.41A9.52,9.52,0,0,1,92.34,84c-3,1.88-5.93,3.88-8.89,5.83q-3.48,2.28-7,4.55a1,1,0,0,1-.89,0,14.25,14.25,0,0,1,1.24-1c5-3.25,10-6.46,15-9.72a9.86,9.86,0,0,0,4.8-9.69c-.37-4.59-.52-9.2-.76-13.8,0-.29,0-.59,0-.89Z"/><path class="cls-1" d="M11.6,61.11A6.05,6.05,0,0,1,11.35,60c-.34-6.07-.77-12.13-1-18.2a9.55,9.55,0,0,1,4.93-9c2.48-1.48,4.84-3.16,7.26-4.74l.32.41c-.92.65-1.83,1.32-2.77,1.95-1.76,1.16-3.6,2.2-5.28,3.46-2.94,2.19-4,5.21-3.8,8.83.36,5.71.64,11.42,1,17.13,0,.42,0,.83,0,1.25Z"/><path class="cls-1" d="M62.88,16c-1.26-.63-2.5-1.29-3.78-1.88a36.4,36.4,0,0,0-5.28-2.3C50,10.76,47,12.7,44,14.83s-6.11,4-9.18,6l-.26-.35c1-.7,1.91-1.43,2.9-2.09,2.92-1.92,5.88-3.78,8.8-5.7a9.27,9.27,0,0,1,8.83-1.14c2.57,1,5,2.43,7.45,3.69a3.87,3.87,0,0,1,.6.46Z"/><path class="cls-1" d="M12.36,68.9c.06.38.15.76.18,1.14.26,3.6.36,7.23.8,10.81.39,3.14,2.5,5.15,5.2,6.59l2.18,1.16-.28.51a33.92,33.92,0,0,1-4.06-2.25,9.33,9.33,0,0,1-3.92-7.07c-.25-3.47-.38-7-.56-10.43a1.4,1.4,0,0,1,.13-.44Z"/><path class="cls-1" d="M25.24,26.37l5.94-3.95.35.52-6,3.9Z"/><path class="cls-1" d="M12.14,62.81c.08,1.42.15,2.84.23,4.38C11.57,66.54,11.33,64,12.14,62.81Z"/><path class="cls-1" d="M74.72,35.43c3.88.9,7.93,1,11.71,2.43a8.37,8.37,0,0,0,5.45.16c3.07-.9,6.3-.34,9.45-.66,2.11-.21,4.27-.93,6.42,0a1.46,1.46,0,0,0,1.06-.22,28.23,28.23,0,0,1,6.71-2.3c6.46-1.68,12.64-4.22,19.17-5.72a69.3,69.3,0,0,1,20.86-1.48,83,83,0,0,1,22.72,5.18c.36.13.73.16.86.7a9.15,9.15,0,0,1-5.34-.15,74.09,74.09,0,0,0-26.8-4,55,55,0,0,0-13.43,2c-4.85,1.4-9.66,2.91-14.47,4.46a79.78,79.78,0,0,1-18.45,3.53,91.31,91.31,0,0,1-25.95-2,2.66,2.66,0,0,1-1.21-.61c.43-.45,1.65-.26,1.24-1.38Z"/><path class="cls-1" d="M181.07,60a96.17,96.17,0,0,0-16.89-4.71,71.27,71.27,0,0,0-17.74-.81c-6.62.55-12.94,2.34-19.21,4.38a114,114,0,0,1-19,4.88,83.7,83.7,0,0,1-19.44.44,97,97,0,0,1-12.22-2c-.47-.1-1.12,0-1.22-.63s.63-.65,1-.87c1.23-.66,2.45-.06,3.63.16a84.79,84.79,0,0,0,24,1.28c4.36-.4,8.57-1.46,12.87-2.12,1.87-.29,3.76.63,5.65-.38,2.41-1.29,5-2.17,7.43-3.47,2.2-1.19,4.46-1.07,6.8-1.1,1.94,0,4,0,5.39-1.91.55-.75,1.75-.49,2.63-.58a68,68,0,0,1,24.12,1.7c3.67,1,7.17,2.6,10.75,3.93A2.46,2.46,0,0,1,181.07,60Z"/><path class="cls-1" d="M117,85.26c5.24-1,10.81-3.2,16.53-4.94a71.88,71.88,0,0,1,36.2-1.49,80.64,80.64,0,0,1,16.73,5.36c.85.38,1.31.66,1,1.58-.4,1.09-1.12.46-1.67.22a87.22,87.22,0,0,0-19-5.69,67.34,67.34,0,0,0-17.35-.91,77.94,77.94,0,0,0-22.8,5.36c-4.64,1.87-9.61,2.61-14.47,3.67-.27.06-.63.29-.8-.12s.18-.62.43-.9C113,86,114.7,85.88,117,85.26Z"/><path class="cls-1" d="M107.84,50.94a3.16,3.16,0,0,1,2.91-2.44c6.32-.73,12.15-3.21,18.14-5.12a74.66,74.66,0,0,1,14.74-3.23,69.9,69.9,0,0,1,16.48.25,87.51,87.51,0,0,1,20.43,5.29c1,.38,1.94.79,2.91,1.18.66.26,1.08.58.65,1.39s-.83.7-1.52.41A92.92,92.92,0,0,0,167.8,43.8a77.47,77.47,0,0,0-17.82-2A65.78,65.78,0,0,0,130.55,45c-5.24,1.62-10.52,3.12-15.78,4.72A30.45,30.45,0,0,1,107.84,50.94Z"/><path class="cls-1" d="M122,71.51a91,91,0,0,1,23-6.3,75.07,75.07,0,0,1,32.76,3.65c2.64.87,5.22,1.92,7.83,2.88a1,1,0,0,1,.7,1.5c-.32.91-.87.63-1.47.38a87.24,87.24,0,0,0-19.7-5.87,67,67,0,0,0-17-.81,85.49,85.49,0,0,0-20.35,4.5A14,14,0,0,1,122,71.51Z"/><path class="cls-1" d="M90.11,76.55a55.06,55.06,0,0,1-8-.92,8.56,8.56,0,0,1-4.87-2,2.61,2.61,0,0,0-2.46-.43,7.7,7.7,0,0,1-1.08.29,2.44,2.44,0,0,1-2-.6.93.93,0,0,1,0-1.22c.58-.79,1.26-.18,1.86,0a118.67,118.67,0,0,0,16.54,3.16c.62.08,1.08.16,1.06.94S90.63,76.49,90.11,76.55Z"/><path class="cls-1" d="M107.34,89a74,74,0,0,1-14.4.34c-.66,0-1-.33-1-1.06s.29-1.12,1.17-1a61.62,61.62,0,0,0,14-.23c.52-.07,1.33-.34,1.46.62C108.7,88.13,108,88.85,107.34,89Z"/><path class="cls-1" d="M110.6,73.82c-.54,2.67-2.57,2.66-4.39,2.82-2.46.21-4.94.29-7.41.4a9.82,9.82,0,0,1-1.67-.12c-.74-.09-.83-.68-.82-1.25s.6-.49,1-.51c3-.21,5.93-.46,8.9-.56A30.36,30.36,0,0,0,110.6,73.82Z"/><path class="cls-1" d="M73.86,47.44l8.95,1.76a2.09,2.09,0,0,1-2.27,1.61C77.38,50.73,74.91,49.52,73.86,47.44Z"/><path class="cls-1" d="M94,51.83a17.82,17.82,0,0,1-4.93,0,1.47,1.47,0,0,1-1.44-1.44c0-1,1-.71,1.58-.59C90.9,50.17,93.08,49.26,94,51.83Z"/><path class="cls-1" d="M180,33.49c1.14.43,2,.75,2.9,1.11a.56.56,0,0,1,.33.76c-.14.32-.48.5-.75.29C181.73,35,180.61,34.81,180,33.49Z"/><path class="cls-1" d="M72.55,85.11c.16-.46-.15-1.16.48-1.41a1.16,1.16,0,0,1,1.42.57c.32.59-.27,1-.67,1.31S72.85,85.65,72.55,85.11Z"/><text class="cls-2" transform="translate(96.77 102.73) rotate(-0.52)">HYDERABAD</text><path class="cls-3" d="M33.2,46.06l-2.76-.44a1.28,1.28,0,0,0-1,2.22l2.17,1.91a25.09,25.09,0,0,0,5.77,3.82l3.89,1.86.54,4.42L40,59,39,60.9l1.93.92a5.54,5.54,0,0,0,1,0l.7,5.78L41,66.76l-.88,1.85L42,69.5a5.33,5.33,0,0,0,1,0l.47,3.87,2.86,3.11L49,59.15l15.24,7.28a7.11,7.11,0,0,0,4.14.61h.09l.22,7.75L71.37,76l1.81-8.56L78.7,60.7l-2.65-1.26-6.11,4.66h0a7.11,7.11,0,0,0-3.26-3.17l-15.07-7.2L63.37,40.65l-4.21-.27-3.31,2.06a5.34,5.34,0,0,0-.59-.78l-1.85-.88-.88,1.85,1.71.82-4.94,3.08a5.62,5.62,0,0,0-.63-.83l-1.93-.92-.92,1.93,1.81.87L43.82,50l0,.05L40,48.19A25.12,25.12,0,0,0,33.2,46.06Z"/></svg>