<svg id="Capa_1" data-name="Capa 1" xmlns="http://www.w3.org/2000/svg" viewBox="0 0 158.59 158.59"><defs><style>.cls-1{fill:#fff;stroke:#285680;stroke-width:5px;}.cls-1,.cls-2{stroke-miterlimit:10;}.cls-2{fill:none;stroke:#f37521;stroke-width:3px;}.cls-3{fill:#805333;}.cls-4{fill:#285680;}.cls-5{fill:#3b97d3;}.cls-6{fill:#2980ba;}.cls-7{fill:#f9eab0;}.cls-8{fill:#4482c3;}</style></defs><title>Inter-Terminal Transfer</title><circle class="cls-1" cx="79.29" cy="79.29" r="76.79"/><line class="cls-2" x1="51.04" y1="77.39" x2="107.54" y2="77.39"/><line class="cls-2" x1="107.54" y1="77.39" x2="94.79" y2="70.11"/><line class="cls-2" x1="107.54" y1="81.2" x2="51.04" y2="81.2"/><line class="cls-2" x1="51.04" y1="81.2" x2="63.8" y2="88.48"/><path class="cls-3" d="M124.62,45.8h7.09v2a2,2,0,0,1-2,2h-3a2,2,0,0,1-2-2Zm0,0"/><path class="cls-3" d="M155,45.8h7.09v2a2,2,0,0,1-2,2h-3a2,2,0,0,1-2-2Zm0,0"/><path class="cls-4" d="M154.27,10.9h-21.6v-9a3.81,3.81,0,0,1,3.8-3.8h14a3.81,3.81,0,0,1,3.8,3.8ZM135.93,7.64H151V1.87a.55.55,0,0,0-.54-.54h-14a.55.55,0,0,0-.54.54Zm0,0"/><path class="cls-5" d="M167.38,45.67H119.55a2.17,2.17,0,0,1-2.17-2.17V9.05a2.17,2.17,0,0,1,2.17-2.17h47.83a2.17,2.17,0,0,1,2.17,2.17V43.49a2.17,2.17,0,0,1-2.17,2.17"/><rect class="cls-6" x="126.16" y="6.88" width="4.01" height="38.79"/><rect class="cls-6" x="156.76" y="6.88" width="4.01" height="38.79"/><path class="cls-7" d="M126.35,21.37H130a.91.91,0,0,0,.91-.91V15.37a.91.91,0,0,0-.27-.64l-1.82-1.82a.91.91,0,0,0-1.29,0l-1.82,1.82a.91.91,0,0,0-.27.64v5.08a.91.91,0,0,0,.91.91Zm0,0"/><path class="cls-4" d="M79.16,33.82l-8.55,4.94-1.26.73-9.68-7.4a1.7,1.7,0,0,1,.18-2.81l2.93-1.7a1.67,1.67,0,0,1,1.52-.08Zm0,0"/><path class="cls-8" d="M103.72,37.29,89,45.8,85.2,48,83.56,58l-.35,2.21a1.7,1.7,0,0,1-.83,1.2L79.48,63a1.69,1.69,0,0,1-2.54-1.3l-.83-8.51-3.22,1.85-8.16,4.7A10.16,10.16,0,0,1,61.55,61,9.81,9.81,0,0,1,58,61L56.88,65.1a1.58,1.58,0,0,1-.72.79l-3.32,2.39a1.69,1.69,0,0,1-2.55-1.45l0-11.71V55L42.31,41.35A1.72,1.72,0,0,1,42.94,39L46.54,37a1.66,1.66,0,0,1,1.64,0L61.51,44l7.84-4.52,1.26-.73,8.55-4.94,6.47-3.74L95.8,24.21a7.85,7.85,0,0,1,10.32,2,7.65,7.65,0,0,1-2.39,11.07Zm0,0"/><path class="cls-4" d="M76.11,53.24l-3.22,1.85-1.06-11a1.65,1.65,0,0,1,.91-1.67,1.81,1.81,0,0,1,.61-.19,1.69,1.69,0,0,1,1.83,1.52Zm0,0"/><path class="cls-4" d="M87,36.89a1.68,1.68,0,0,1,1.94-1.4,1.7,1.7,0,0,1,1.4,1.94L89,45.8,85.2,48Zm0,0"/><path class="cls-4" d="M64.48,50.57,61.55,61A9.81,9.81,0,0,1,58,61l3.2-11.33a1.69,1.69,0,1,1,3.24.91Zm0,0"/><path class="cls-4" d="M89.67,97.78a1.67,1.67,0,0,1,1.52.08l2.93,1.7a1.7,1.7,0,0,1,.18,2.81l-9.68,7.4-1.26-.73-8.55-4.94Zm-14.85,6.34"/><path class="cls-8" d="M50.26,107.59a7.65,7.65,0,0,1-2.39-11.07,7.85,7.85,0,0,1,10.32-2l10.16,5.87,6.47,3.74,8.55,4.94,1.26.73,7.84,4.52,13.33-7.06a1.66,1.66,0,0,1,1.64,0l3.61,2.07a1.72,1.72,0,0,1,.62,2.33l-7.92,13.69v.08l0,11.71a1.69,1.69,0,0,1-2.55,1.45l-3.32-2.39a1.58,1.58,0,0,1-.72-.79l-1.16-4.11a9.81,9.81,0,0,1-3.51,0,10.16,10.16,0,0,1-3.19-1.18l-8.16-4.7-3.22-1.85L77,132a1.69,1.69,0,0,1-2.54,1.3l-2.9-1.67a1.7,1.7,0,0,1-.83-1.2l-.35-2.21-1.64-10L65,116.1l-14.75-8.51Zm0,0"/><path class="cls-4" d="M78.79,114.08a1.69,1.69,0,0,1,1.83-1.52,1.81,1.81,0,0,1,.61.19,1.65,1.65,0,0,1,.91,1.67l-1.06,11-3.22-1.85Zm-.93,9.46"/><path class="cls-4" d="M68.78,118.28,65,116.1l-1.36-8.38a1.7,1.7,0,0,1,1.4-1.94,1.68,1.68,0,0,1,1.94,1.4ZM67,107.19"/><path class="cls-4" d="M89.5,120.87a1.69,1.69,0,1,1,3.24-.91l3.2,11.33a9.81,9.81,0,0,1-3.51,0l-2.93-10.4Zm0,0"/></svg>