<svg id="OBJECTS" xmlns="http://www.w3.org/2000/svg" viewBox="0 0 232 130"><defs><style>.cls-1,.cls-2,.cls-3{fill:#fff;}.cls-1{fill-rule:evenodd;}.cls-2{font-size:26.97px;font-family:Verdana;}</style></defs><path class="cls-1" d="M115.81,84.49c0-5.63-.49-11.25-.8-16.87a1.56,1.56,0,0,0-.45-.76,4.6,4.6,0,0,0-.68-.56l1-.49c-.1-1.76-.22-3.58-.32-5.4-.33-6.22-.62-12.43-1-18.65a16.81,16.81,0,0,0-4.49-10.7,22.44,22.44,0,0,0-6.84-4.6c-6.37-3.19-12.67-6.5-19-9.73a22.19,22.19,0,0,0-2.36-1c-.7-.37-1.41-.73-2.14-1a3.78,3.78,0,0,0-.89-.67c-.7-.35-1.52-.44-2.21-.8-3.27-1.69-6.41-3.7-9.81-5.1A15.85,15.85,0,0,0,50.92,9.36a2,2,0,0,0-.51.47c-1.19.71-2.35,1.49-3.47,2.31-.29.18-.59.35-.87.55a2,2,0,0,0-.76.27c-3.55,2.26-7,4.62-10.54,6.93-2.6,1.72-5.24,3.39-7.84,5.09-3.36,2.2-6.66,4.49-10.07,6.62C11.22,35.12,8,40.05,8.16,46.79c.09,4.84.48,9.67.73,14.51.18,3.31.35,6.63.53,10A16.27,16.27,0,0,0,9.72,76c0,.39,0,.77,0,1.16a4.42,4.42,0,0,0,0,1c.31,3.54.41,7.1.64,10.65a16.36,16.36,0,0,0,8.52,13.68c5.12,3,10.56,5.4,15.86,8.08q7.29,3.68,14.56,7.37c2.78,1.4,5.48,3,8.34,4.19,5.84,2.44,11.44,1.54,16.65-1.87,6.89-4.49,13.73-9,20.6-13.58,4.67-3.07,9.44-6,14-9.24A15.34,15.34,0,0,0,115.81,84.49Zm-7,11c-2.86,2.17-6,4-9,6l-13.4,8.81C82.2,113,78,115.69,73.83,118.48,68.58,122,63.14,122.94,57.31,120c-2.6-1.31-5.23-2.58-7.83-3.89l-14.69-7.46c-4.54-2.31-9.06-4.66-13.64-6.89-5.4-2.64-8.48-6.86-8.93-12.86-.34-4.52-.55-9-.82-13.59a15.47,15.47,0,0,0-.22-3.19h0c0-1.06,0-1.84-.07-2.62C10.72,62,10.27,54.5,9.92,47A13.91,13.91,0,0,1,14.8,35.35,95.12,95.12,0,0,1,23,29.63c0-.29,0-.68,0-.74a9.59,9.59,0,0,0,2.23-.68c3.84-2.45,7.62-5,11.47-7.43,1-.67,2.2-1.16,2.66-2.09.4-.28.8-.57,1.19-.87a2.35,2.35,0,0,0,1.12-.24c3.11-1.93,6.18-3.95,9.24-6C54.9,9,59.29,7.78,64,9.34c2.92,1,5.61,2.68,8.46,3.91,1.4.61,2.67,1.65,4.24,2a25.44,25.44,0,0,0,3.44,1.79,2.45,2.45,0,0,0,1,.63c1.42.56,2.71,1.43,4.12,2a7.4,7.4,0,0,0,1.59.4l1.23.5a1.3,1.3,0,0,0,.48.82c2.34,1.25,4.75,2.38,7.08,3.52l0,0a56.46,56.46,0,0,0,6,3,4.75,4.75,0,0,0,1.09.64c4.71,2.18,7.89,5.71,8.69,10.91.53,3.45.62,7,.82,10.47.61,10.62,1.23,21.23,1.73,31.85.15,3.24.42,6.6-1.76,9.44C111.12,92.75,110.18,94.43,108.78,95.49Z"/><path class="cls-1" d="M75.12,19.29c1.1.49,2.22.93,3.29,1.47,6.8,3.45,13.63,6.84,20.38,10.4,2.66,1.41,5.68,2.54,7.18,5.46a13.22,13.22,0,0,1,1.73,4.81c.58,8,.93,16,1.36,23.92l-.4.14a5.44,5.44,0,0,1-.41-1.32c-.23-4.14-.42-8.29-.64-12.43-.16-3.27-.28-6.53-.52-9.79-.36-4.86-3.34-7.68-7.51-9.67-4.73-2.25-9.36-4.7-14-7.07l-9-4.54c-.56-.28-1.08-.62-1.62-.93Z"/><path class="cls-1" d="M85.39,105.88c-.6.46-1.17,1-1.8,1.38-4.69,3-9.33,6.2-14.12,9.09a10.16,10.16,0,0,1-10.12.22c-6.78-3.35-13.52-6.82-20.27-10.23-3.45-1.75-6.89-3.48-10.32-5.25a1.86,1.86,0,0,1-.9-1.2c1.27.61,2.54,1.2,3.8,1.82q7.41,3.74,14.82,7.49,6.48,3.28,13,6.6a10.21,10.21,0,0,0,10.71-.61c4.43-2.83,8.78-5.77,13.17-8.65.58-.38,1.19-.69,1.79-1Z"/><path class="cls-1" d="M108.84,66.1a4.31,4.31,0,0,1,.29,1c.32,5.68.79,11.36.89,17,.07,4.09-1.92,7.25-5.45,9.45-3.32,2.08-6.56,4.3-9.83,6.45-2.57,1.68-5.13,3.36-7.71,5a1.1,1.1,0,0,1-1,0,16.46,16.46,0,0,1,1.38-1.12c5.52-3.59,11.07-7.15,16.59-10.75a10.92,10.92,0,0,0,5.31-10.72c-.41-5.08-.58-10.18-.84-15.26,0-.33,0-.66,0-1Z"/><path class="cls-1" d="M15.28,68.21A6.83,6.83,0,0,1,15,67c-.38-6.7-.86-13.41-1.07-20.12a10.55,10.55,0,0,1,5.46-10c2.74-1.63,5.35-3.49,8-5.24l.35.45c-1,.72-2,1.46-3.06,2.15-1.95,1.28-4,2.43-5.85,3.82-3.24,2.42-4.46,5.76-4.2,9.76.4,6.31.71,12.63,1.05,18.95,0,.46,0,.92,0,1.38Z"/><path class="cls-1" d="M72,18.36c-1.4-.69-2.77-1.43-4.18-2.08A40,40,0,0,0,62,13.74c-4.26-1.2-7.59.95-10.91,3.3s-6.76,4.41-10.15,6.59l-.28-.39c1.06-.77,2.11-1.58,3.21-2.3,3.23-2.12,6.5-4.18,9.73-6.31a10.23,10.23,0,0,1,9.76-1.26c2.84,1.11,5.5,2.69,8.24,4.07a5.26,5.26,0,0,1,.67.52C72.16,18.09,72.08,18.23,72,18.36Z"/><path class="cls-1" d="M16.13,76.83c.06.42.17.84.2,1.26.28,4,.39,8,.88,12,.43,3.47,2.77,5.7,5.75,7.29.8.43,1.6.86,2.41,1.28-.11.19-.21.38-.31.57a36.82,36.82,0,0,1-4.49-2.49,10.32,10.32,0,0,1-4.34-7.82c-.27-3.84-.42-7.69-.61-11.53a1.58,1.58,0,0,1,.14-.49Z"/><path class="cls-1" d="M30.37,29.8l6.57-4.36.39.57-6.59,4.32Z"/><path class="cls-1" d="M15.88,70.1c.08,1.57.17,3.14.26,4.84C15.26,74.22,15,71.4,15.88,70.1Z"/><path class="cls-1" d="M73.86,23.68c1,.44,2,.85,3,1.34,6.15,3.11,12.33,6.18,18.42,9.4,2.42,1.27,5.15,2.3,6.5,4.93a11.94,11.94,0,0,1,1.57,4.36c.52,7.2.83,14.42,1.22,21.63l-.36.12a5.84,5.84,0,0,1-.37-1.19c-.21-3.75-.38-7.5-.57-11.24-.15-3-.26-5.91-.48-8.85-.32-4.4-3-7-6.79-8.75-4.27-2-8.46-4.25-12.69-6.39-2.72-1.37-5.44-2.73-8.15-4.11-.5-.26-1-.56-1.47-.84C73.74,24,73.8,23.82,73.86,23.68Z"/><path class="cls-1" d="M83.15,102c-.54.42-1.06.88-1.63,1.25-4.24,2.76-8.43,5.6-12.77,8.22a9.15,9.15,0,0,1-9.14.19c-6.14-3-12.23-6.16-18.34-9.25-3.12-1.57-6.23-3.14-9.33-4.74a1.66,1.66,0,0,1-.81-1.09c1.14.55,2.29,1.08,3.43,1.65Q41.27,101.6,48,105c3.91,2,7.81,4,11.72,6a9.23,9.23,0,0,0,9.68-.55c4-2.56,7.94-5.22,11.91-7.83.52-.34,1.08-.62,1.62-.93Z"/><path class="cls-1" d="M104.36,66a4,4,0,0,1,.26.86c.29,5.14.71,10.27.8,15.41a9.5,9.5,0,0,1-4.92,8.55c-3,1.88-5.93,3.89-8.9,5.83q-3.46,2.28-7,4.55a1,1,0,0,1-.89,0,14.56,14.56,0,0,1,1.24-1c5-3.25,10-6.46,15-9.72a9.87,9.87,0,0,0,4.8-9.7c-.37-4.59-.52-9.2-.76-13.8a8.88,8.88,0,0,1,0-.89Z"/><path class="cls-1" d="M19.75,67.93a6,6,0,0,1-.25-1.06c-.34-6.07-.77-12.13-1-18.2a9.57,9.57,0,0,1,4.94-9.05c2.48-1.48,4.84-3.16,7.26-4.74l.31.4c-.92.65-1.83,1.32-2.77,1.95-1.76,1.16-3.6,2.2-5.28,3.45-2.94,2.19-4,5.21-3.8,8.83.36,5.71.64,11.42.95,17.14,0,.41,0,.83,0,1.24Z"/><path class="cls-1" d="M71,22.84c-1.26-.63-2.51-1.29-3.78-1.88A36.69,36.69,0,0,0,62,18.66c-3.85-1.08-6.87.86-9.86,3s-6.12,4-9.19,6l-.25-.35c1-.7,1.9-1.44,2.9-2.09,2.92-1.92,5.89-3.78,8.8-5.7a9.23,9.23,0,0,1,8.83-1.14c2.57,1,5,2.43,7.45,3.68a3.75,3.75,0,0,1,.6.47Z"/><path class="cls-1" d="M20.51,75.72a11.24,11.24,0,0,1,.18,1.14c.26,3.6.36,7.23.8,10.81.39,3.13,2.51,5.15,5.2,6.59l2.18,1.16c-.1.17-.19.34-.28.51a34,34,0,0,1-4.06-2.25,9.34,9.34,0,0,1-3.92-7.07c-.25-3.48-.38-7-.56-10.43a1.29,1.29,0,0,1,.13-.44Z"/><path class="cls-1" d="M33.4,33.19l5.94-3.95c.11.18.23.35.34.52l-6,3.9Z"/><path class="cls-1" d="M20.29,69.63c.08,1.42.15,2.84.23,4.38C19.73,73.36,19.49,70.81,20.29,69.63Z"/><path class="cls-1" d="M82.88,42.25c3.88.9,7.92,1,11.71,2.43a8.39,8.39,0,0,0,5.45.16c3.07-.89,6.3-.34,9.45-.66,2.11-.21,4.27-.93,6.43,0a1.48,1.48,0,0,0,1-.22,28.79,28.79,0,0,1,6.71-2.3c6.46-1.68,12.65-4.21,19.17-5.72a69.31,69.31,0,0,1,20.86-1.47,83.14,83.14,0,0,1,22.72,5.18c.35.13.73.15.86.7a9.18,9.18,0,0,1-5.34-.15,74.07,74.07,0,0,0-26.8-4,55.11,55.11,0,0,0-13.42,2q-7.28,2.12-14.47,4.47a80,80,0,0,1-18.46,3.53,91.47,91.47,0,0,1-25.94-2,2.65,2.65,0,0,1-1.21-.62c.43-.45,1.65-.26,1.24-1.38Z"/><path class="cls-1" d="M189.23,66.85a96.51,96.51,0,0,0-16.9-4.72,71.22,71.22,0,0,0-17.74-.8c-6.62.54-12.94,2.34-19.21,4.38a113.36,113.36,0,0,1-19,4.88A83.81,83.81,0,0,1,96.94,71a97.49,97.49,0,0,1-12.22-2c-.47-.1-1.12,0-1.21-.63s.62-.65,1-.87c1.23-.65,2.45-.06,3.63.17a84.79,84.79,0,0,0,24,1.28c4.36-.4,8.57-1.46,12.87-2.12,1.87-.29,3.75.63,5.65-.39,2.4-1.28,5-2.17,7.43-3.47,2.19-1.18,4.46-1.07,6.8-1.1,1.94,0,4,0,5.39-1.91.55-.75,1.75-.5,2.63-.58a68.23,68.23,0,0,1,24.12,1.7c3.67,1,7.17,2.6,10.75,3.94A2.47,2.47,0,0,1,189.23,66.85Z"/><path class="cls-1" d="M125.1,92.07c5.25-.95,10.82-3.2,16.53-4.93a71.93,71.93,0,0,1,36.2-1.5A80.94,80.94,0,0,1,194.56,91c.85.38,1.31.66,1,1.58-.4,1.09-1.11.46-1.67.22a87.09,87.09,0,0,0-19-5.68,67.29,67.29,0,0,0-17.35-.91,77.67,77.67,0,0,0-22.8,5.36c-4.63,1.87-9.6,2.6-14.47,3.66-.27.06-.63.29-.8-.12s.17-.61.43-.9C121.14,92.87,122.85,92.7,125.1,92.07Z"/><path class="cls-1" d="M116,57.76a3.17,3.17,0,0,1,2.91-2.44c6.32-.73,12.15-3.21,18.14-5.11A74,74,0,0,1,151.78,47a69.92,69.92,0,0,1,16.48.25,87.2,87.2,0,0,1,20.42,5.3c1,.37,1.94.79,2.92,1.17.66.27,1.08.58.65,1.39s-.83.71-1.52.42A92.24,92.24,0,0,0,176,50.62a77.54,77.54,0,0,0-17.82-2,65.58,65.58,0,0,0-19.44,3.25c-5.24,1.62-10.52,3.11-15.77,4.71A30,30,0,0,1,116,57.76Z"/><path class="cls-1" d="M130.12,78.33a90.82,90.82,0,0,1,23-6.3,75.13,75.13,0,0,1,32.76,3.65c2.64.87,5.22,1.92,7.83,2.87a1,1,0,0,1,.7,1.5c-.32.91-.87.63-1.47.38a87.44,87.44,0,0,0-19.7-5.88,67.34,67.34,0,0,0-17-.81,85.89,85.89,0,0,0-20.35,4.5C134.33,78.79,132.08,78.58,130.12,78.33Z"/><path class="cls-1" d="M98.26,83.37a55.61,55.61,0,0,1-8-.93,8.55,8.55,0,0,1-4.87-2A2.59,2.59,0,0,0,82.89,80a7.48,7.48,0,0,1-1.08.28,2.45,2.45,0,0,1-2-.6.94.94,0,0,1,0-1.22c.59-.78,1.26-.17,1.86,0a119.15,119.15,0,0,0,16.54,3.16c.61.08,1.08.16,1.06,1S98.78,83.3,98.26,83.37Z"/><path class="cls-1" d="M115.49,95.79a73.63,73.63,0,0,1-14.39.34c-.66,0-1-.33-1-1.06s.29-1.12,1.17-1a62,62,0,0,0,14-.24c.52-.07,1.33-.34,1.47.63C116.86,95,116.14,95.67,115.49,95.79Z"/><path class="cls-1" d="M118.75,80.64c-.54,2.67-2.56,2.66-4.39,2.82-2.46.21-4.94.29-7.41.4a9.39,9.39,0,0,1-1.67-.12c-.74-.09-.83-.68-.82-1.25s.6-.49,1-.51c3-.22,5.94-.47,8.91-.57A29,29,0,0,0,118.75,80.64Z"/><path class="cls-1" d="M82,54.25,91,56a2.1,2.1,0,0,1-2.27,1.62C85.53,57.55,83.06,56.34,82,54.25Z"/><path class="cls-1" d="M102.16,58.65a17.7,17.7,0,0,1-4.93,0,1.45,1.45,0,0,1-1.44-1.44c0-.95,1-.71,1.58-.59C99.05,57,101.24,56.08,102.16,58.65Z"/><path class="cls-1" d="M188.18,40.3c1.14.44,2,.75,2.9,1.12a.55.55,0,0,1,.33.75c-.14.33-.48.51-.75.29C189.88,41.85,188.77,41.63,188.18,40.3Z"/><path class="cls-1" d="M80.71,91.93c.15-.46-.16-1.16.48-1.41a1.17,1.17,0,0,1,1.42.57c.31.59-.27,1-.67,1.31S81,92.47,80.71,91.93Z"/><text class="cls-2" transform="translate(104.93 109.54) rotate(-0.52)">MUMBAI</text><path class="cls-3" d="M41.35,52.87l-2.76-.44a1.28,1.28,0,0,0-1,2.22l2.16,1.91a25.31,25.31,0,0,0,5.78,3.82l3.89,1.85.54,4.42-1.81-.86-.93,1.93,1.94.92a5.67,5.67,0,0,0,1,0l.7,5.78-1.71-.81-.88,1.85,1.85.88a5.45,5.45,0,0,0,1,0l.47,3.86,2.86,3.11L57.19,66l15.24,7.28a7.12,7.12,0,0,0,4.14.62l.09,0,.22,7.75,2.64,1.27,1.81-8.56,5.52-6.79-2.64-1.26-6.12,4.66h0a7.15,7.15,0,0,0-3.26-3.17l-15.07-7.2L71.52,47.47l-4.21-.27L64,49.26a6.39,6.39,0,0,0-.59-.78l-1.85-.88-.89,1.85,1.71.82-4.94,3.08a5.57,5.57,0,0,0-.62-.82l-1.94-.93L54,53.54l1.81.86L52,56.77l0,.06L48.19,55A24.85,24.85,0,0,0,41.35,52.87Z"/></svg>