<svg id="Layer_1" data-name="Layer 1" xmlns="http://www.w3.org/2000/svg" viewBox="0 0 202.61 203.09"><defs><style>.cls-1{fill:#247cc0;}</style></defs><g id="Flight_Blue"><path class="cls-1" d="M195.92,6.69c-9.28-9.29-24.77-8.85-34.6,1l-33.63,36L21,11.67l-18,18a5.05,5.05,0,0,0,0,7.14L89.49,84.45l-34,36.87a36.13,36.13,0,0,0-7,9.87l-36.11-9.35L1.12,133.08a3.81,3.81,0,0,0,0,5.39l39.74,20.16,3.6,3.6L64.62,202A3.81,3.81,0,0,0,70,202l11.24-11.23L71.73,154a36.26,36.26,0,0,0,9.57-6.9l37-34.11,48,87.12a5,5,0,0,0,7.14,0l18-18L159.26,74.67,195,41.29C204.77,31.46,205.21,16,195.92,6.69Z"/></g></svg>