<svg id="All_glyphs" data-name="All glyphs" xmlns="http://www.w3.org/2000/svg" viewBox="0 0 63.22 79.55"><defs><style>.cls-1{fill:#fff;}</style></defs><path class="cls-1" d="M62.06,27.7a1.16,1.16,0,0,0,1.16-1.16V15.28A4.3,4.3,0,0,0,59.14,11C45.32,10.26,37.89,4.61,34.7,1.31a4.29,4.29,0,0,0-6.17,0c-3.2,3.3-10.63,9-24.45,9.66A4.3,4.3,0,0,0,0,15.28V47.77A26.33,26.33,0,0,0,13.14,70.52l13.18,7.61a10.56,10.56,0,0,0,10.58,0l13.19-7.61A26.34,26.34,0,0,0,63.22,47.77V32a1.17,1.17,0,0,0-2.33,0v15.8a24,24,0,0,1-12,20.74L35.74,76.12a8.32,8.32,0,0,1-8.25,0L14.3,68.51a24,24,0,0,1-12-20.74V15.28a2,2,0,0,1,1.87-2c14.62-.74,22.57-6.81,26-10.36a2,2,0,0,1,2.82,0c3.44,3.55,11.38,9.62,26,10.36a2,2,0,0,1,1.87,2V26.54a1.17,1.17,0,0,0,1.17,1.16Zm0,0"/><path class="cls-1" d="M7.44,30.81A1.16,1.16,0,0,0,6.28,32v15.8a20.06,20.06,0,0,0,10,17.32L29.46,72.7a4.34,4.34,0,0,0,4.3,0L47,65.09A20.09,20.09,0,0,0,57,47.77V19.57a2.74,2.74,0,0,0-2.39-2.71C44.11,15.55,37.23,11.58,33.3,8.48a2.71,2.71,0,0,0-3.38,0c-3.93,3.1-10.8,7.07-21.25,8.38a2.74,2.74,0,0,0-2.39,2.71v7a1.17,1.17,0,0,0,2.33,0v-7A.39.39,0,0,1,9,19.18c11-1.39,18.24-5.59,22.4-8.87a.39.39,0,0,1,.5,0c4.16,3.28,11.42,7.48,22.41,8.87a.39.39,0,0,1,.35.39v28.2a17.73,17.73,0,0,1-8.84,15.3L32.6,70.68a2,2,0,0,1-2,0L17.44,63.07a17.72,17.72,0,0,1-8.83-15.3V32a1.16,1.16,0,0,0-1.17-1.16Zm0,0"/><path class="cls-1" d="M17.49,37a3.52,3.52,0,0,1,2.5,1l6.09,6.08a1.16,1.16,0,0,0,1.65,0l6.67-6.67a1.16,1.16,0,1,0-1.65-1.64L26.9,41.69l-5.26-5.26a5.88,5.88,0,0,0-8.31,8.31l9.42,9.41a5.88,5.88,0,0,0,8.31,0L49.89,35.32A5.87,5.87,0,1,0,41.59,27l-5,5a1.16,1.16,0,1,0,1.64,1.65l5-5a3.54,3.54,0,1,1,5,5L29.41,52.51a3.56,3.56,0,0,1-2.51,1,3.52,3.52,0,0,1-2.5-1L15,43.09A3.55,3.55,0,0,1,17.49,37Zm0,0"/></svg>