<?xml version="1.0" encoding="utf-8"?>
<!-- Generator: Adobe Illustrator 24.3.0, SVG Export Plug-In . SVG Version: 6.00 Build 0)  -->
<svg version="1.1" id="Layer_1" xmlns="http://www.w3.org/2000/svg" xmlns:xlink="http://www.w3.org/1999/xlink" x="0px" y="0px"
	 viewBox="0 0 3261.9 1089.2" style="enable-background:new 0 0 3261.9 1089.2;" xml:space="preserve">
<style type="text/css">
	.st0{clip-path:url(#SVGID_2_);fill:url(#SVGID_3_);}
	.st1{opacity:0.4;clip-path:url(#SVGID_2_);}
	.st2{opacity:0.2;fill:url(#SVGID_4_);enable-background:new    ;}
	.st3{opacity:0.2;fill:url(#SVGID_5_);enable-background:new    ;}
	.st4{opacity:0.2;fill:url(#SVGID_6_);enable-background:new    ;}
	.st5{opacity:0.2;fill:url(#SVGID_7_);enable-background:new    ;}
	.st6{opacity:0.2;clip-path:url(#SVGID_2_);fill:url(#SVGID_8_);enable-background:new    ;}
	.st7{opacity:0.2;clip-path:url(#SVGID_2_);fill:url(#SVGID_9_);enable-background:new    ;}
	.st8{opacity:0.2;clip-path:url(#SVGID_2_);fill:url(#SVGID_10_);enable-background:new    ;}
	.st9{clip-path:url(#SVGID_2_);}
	.st10{clip-path:url(#SVGID_12_);}
	.st11{fill:#FFFFFF;}
	.st12{clip-path:url(#SVGID_14_);}
	.st13{clip-path:url(#SVGID_16_);}
</style>
<g>
	<g>
		<defs>
			<path id="SVGID_1_" d="M133.5,284.7h2696.2c30.9,0,55.9,25,55.9,55.9v388.2c0,30.9-25,55.9-55.9,55.9H133.5
				c-30.9,0-55.9-25-55.9-55.9V340.6C77.6,309.7,102.6,284.7,133.5,284.7z"/>
		</defs>
		<clipPath id="SVGID_2_">
			<use xlink:href="#SVGID_1_"  style="overflow:visible;"/>
		</clipPath>
		
			<linearGradient id="SVGID_3_" gradientUnits="userSpaceOnUse" x1="793.093" y1="1375.8651" x2="2170.1072" y2="-265.2052" gradientTransform="matrix(1 0 0 -1 0 1090)">
			<stop  offset="1.000000e-02" style="stop-color:#00BBFF"/>
			<stop  offset="0.95" style="stop-color:#140EC9"/>
		</linearGradient>
		<path class="st0" d="M133.5,284.7h2696.2c30.9,0,55.9,25,55.9,55.9v388.2c0,30.9-25,55.9-55.9,55.9H133.5
			c-30.9,0-55.9-25-55.9-55.9V340.6C77.6,309.7,102.6,284.7,133.5,284.7z"/>
		<g class="st1">
			
				<radialGradient id="SVGID_4_" cx="2902.5552" cy="-1673.7235" r="245.54" gradientTransform="matrix(1.25 0.1 -0.26 0.92 -3743.8201 1633.9301)" gradientUnits="userSpaceOnUse">
				<stop  offset="0" style="stop-color:#FFFFFF"/>
				<stop  offset="0.65" style="stop-color:#FFFFFF"/>
				<stop  offset="1" style="stop-color:#FFFFFF"/>
			</radialGradient>
			<path class="st2" d="M445.3,122.1c95.1,20.2,111.4,163.2,114.1,240.3c2.2,62.2-34.4,124.2-81.9,162.9
				c-41.5,33.9-93.8,50.2-141.5,73c-52.2,24.9-105.6,36.9-163.2,27.4c-39.1-6.5-80.5-27.2-102.6-60.6c-26-39.4-23.2-84.9-27.6-129.6
				c-8-81.6,26-153.1,92.1-201.6c22.5-16.5,53.3-21.6,78.1-34.1c29.1-14.6,55.9-33.6,81.5-53.7c44-34.6,98.9-35.1,150.8-23.9
				L445.3,122.1z"/>
			
				<radialGradient id="SVGID_5_" cx="1757.2322" cy="2682.4031" r="284.6166" gradientTransform="matrix(0.9768 0.2142 0.2142 -0.9768 -1950.1221 2668.6267)" gradientUnits="userSpaceOnUse">
				<stop  offset="0.49" style="stop-color:#000000"/>
				<stop  offset="1" style="stop-color:#FFFFFF"/>
			</radialGradient>
			<path class="st3" d="M363.8,644.2c5-2.9,10.2-5.2,15.7-6.9c14.7-4.4,30.5-4.9,45.3-9.5c29.8-9.2,55.5-26.5,71.4-53.8
				c13.3-22.8,22.6-47.6,29.7-72.9c6.5-22.8,10.4-47.7,24.2-67.5c13.9-20,35.9-31.2,54.9-45.6c41-31.1,60.2-75.7,38.3-123.7
				c-17.8-38.9-50.5-68.4-89.9-84.7c-79.3-32.9-168.6-14.1-239.2,30.6C250.6,250.5,204.6,310.9,144.7,356
				c-54.2,40.8-89.4,62.8-105.1,133.2c-5.5,25-13.9,59.3-11.5,85.1c8,87.6,122.8,110,193.3,114.1c25.9,1.5,60.3-1.1,84.3-11.2
				c12.2-5.1,22.7-13.3,34.5-19.3C348.1,653.9,355.8,648.6,363.8,644.2z"/>
			
				<linearGradient id="SVGID_6_" gradientUnits="userSpaceOnUse" x1="5036.7339" y1="-460.6144" x2="5514.604" y2="-460.6144" gradientTransform="matrix(-0.51 -0.98 -0.94 0.39 2492.3 5810.6001)">
				<stop  offset="0" style="stop-color:#FFFFFF"/>
				<stop  offset="1" style="stop-color:#FFFFFF"/>
			</linearGradient>
			<path class="st4" d="M476.2,534.5c5.1-17,8.1-34.6,9.2-52.3c1.3-21.3-1.6-43.4-6.5-64.8c-9.2-40-20.5-67.7-54.9-94.8
				c-34.5-27.2-47.1-78.9-72.4-113.4c-17.9-24.4-50.5-30.7-78.6-30.9c-41.8-0.3-50.2,22.4-77,49c-13,13-30.2,19.6-46.6,27.1
				C43.2,303.5,0.3,404.5,3.5,518.3c2,67.9,65,134.5,117.1,171.9c55.1,39.6,123.2,54.7,183.2,35.1c38.3-12.5,69.5-37.5,96.2-65.7
				C433.9,623.9,462.1,582.2,476.2,534.5z"/>
			
				<radialGradient id="SVGID_7_" cx="3613.9458" cy="-750.5973" r="276.36" gradientTransform="matrix(-0.46 -1.02 -0.91 0.41 1315.79 4450.4897)" gradientUnits="userSpaceOnUse">
				<stop  offset="0" style="stop-color:#FFFFFF"/>
				<stop  offset="1" style="stop-color:#FFFFFF"/>
			</radialGradient>
			<path class="st5" d="M532.9,166.5c-16.5-10.6-36.5-18.1-59.9-21.3c-58.7-8.1-116.6,17.8-169,41c-51,22.6-104.4,44.4-150.6,76.2
				C57.1,328.8-35.9,533.5,78,621.9c25.2,19.6,60.6,20.7,90.3,31.2c32,11.3,62.9,25.7,93.8,39.8c44.5,20.3,100.5,44.7,133.4-5.8
				c29.8-45.7,28.8-108.3,49.6-158.1c21.4-51.3,61.6-80.5,99.1-118.9C613.3,339.3,611.8,217.2,532.9,166.5z"/>
		</g>
		
			<linearGradient id="SVGID_8_" gradientUnits="userSpaceOnUse" x1="2215.2546" y1="884.7527" x2="2527.2847" y2="362.7027" gradientTransform="matrix(1 0 0 -1 0 1090)">
			<stop  offset="0" style="stop-color:#FFFFFF"/>
			<stop  offset="1" style="stop-color:#212121"/>
		</linearGradient>
		<path class="st6" d="M2851.7,543.9c-11.7-22.7-26-43.9-42.7-63.2c-20.3-23.4-46.3-44-73.9-61.9c-51.6-33.4-93.3-52.1-161.1-49
			c-68.1,3.2-135.8-39.5-200.7-52.4c-47.4-9.4-81.3,8.8-108.5,38.4c-32.3,35.2-25.4,83.6-59,118.6c-31.5,32.9-76.9,55.3-99.2,93.9
			c-25.6,44.2-6.4,84.4,19.6,125.4c11.7,18.4,22.8,38.8,27.7,59.2c4.7,19.9,1.2,40,4.3,59.9c5,32.2,24.6,70.7,47,97.4
			c16.3,19.4,37.7,36.5,61,50.6c90.7,54.9,216.4,81.5,329.2,71.8c104.9-9.1,200-55.7,250.1-131.1c32-48.2,42.9-103,45.3-156.9
			C2893.7,676.4,2884,606.7,2851.7,543.9z"/>
		
			<linearGradient id="SVGID_9_" gradientUnits="userSpaceOnUse" x1="3892.1238" y1="839.0743" x2="4730.1538" y2="839.0743" gradientTransform="matrix(-0.95 -0.52 -0.52 0.76 7254.3501 2229.0798)">
			<stop  offset="0.25" style="stop-color:#000000"/>
			<stop  offset="0.8" style="stop-color:#8E8E8E"/>
			<stop  offset="1" style="stop-color:#C2C2C2"/>
		</linearGradient>
		<path class="st7" d="M2765.6,186c-86.9-14.1-180.3,5.1-241.9,67c-41.3,41.6-72.1,100-97.8,150.1c-26.3,51.3-109,68.9-156.6,104.5
			c-50,37.4-110.9,110.3-125.1,168.4c-8.3,34,10.4,76.5,37.9,100.8c33.5,29.7,66.2,59.5,92.8,94.5s49,73,81,104.7
			c44.6,44.2,103.5,71.3,163.7,94.4c52.5,20.2,105.1,27.3,157.8,4.6c55.8-24.1,105.6-59.6,160.5-85.7
			c112.7-53.7,218.2-115.2,304.4-201c45.9-46,80.1-102.4,99.7-164.4c38.3-123.1,29-247.1-92.6-329.7
			c-65.9-44.8-135.2-35.7-210.5-51.8c-36.1-7.7-69-23.5-102.6-37C2813.3,196.4,2789.7,189.9,2765.6,186z"/>
		
			<linearGradient id="SVGID_10_" gradientUnits="userSpaceOnUse" x1="969.2374" y1="824.8031" x2="1505.5275" y2="824.8031" gradientTransform="matrix(-8.000000e-02 1.43 -1.51 8.000000e-02 2685.3899 -1434.7599)">
			<stop  offset="0" style="stop-color:#000000"/>
			<stop  offset="0.84" style="stop-color:#FFFFFF"/>
		</linearGradient>
		<path class="st8" d="M1826.4,512.5c-46.2,69.6-131.8,132.2-239.7,156.1c-72.4,16-155.1,18.2-225.6,19.5
			c-72.1,1.4-148.5,56.6-219.2,79.4c-74.2,23.9-193.1,43.4-263.8,33.4c-41.4-5.9-72.7-34.8-78.9-63.9
			c-7.5-35.4-15.8-70.3-33.8-102.5s-42-62.3-52.7-97.3c-14.9-48.8-1.9-102.2,16.2-155.2c15.8-46.2,45.1-87.8,105.8-118.9
			c64.3-33,136.4-57.4,202.2-88.9c135.2-64.7,273.4-121.4,423.6-155.1C1541.4,1,1626.8-4.1,1702.6,3.3
			c155.6,15.2,278.6,66,279.7,185.7c0.6,64.9-57.5,113.2-93.5,174.9c-17.2,29.6-23.8,59.6-33.3,89.4
			C1849.1,473.1,1839.3,493.1,1826.4,512.5z"/>
		<g class="st9">
			<defs>
				<path id="SVGID_11_" d="M1045.5,849.7c49.8,49.8,130.6,49.8,180.5,0c49.8-49.8,49.8-130.6,0-180.5
					c-49.8-49.8-130.6-49.8-180.4,0C995.7,719.1,995.7,799.8,1045.5,849.7z"/>
			</defs>
			<clipPath id="SVGID_12_">
				<use xlink:href="#SVGID_11_"  style="overflow:visible;"/>
			</clipPath>
			<g class="st10">
				<g>
					<g>
						<rect x="964.8" y="618.2" class="st11" width="329.1" height="4"/>
						<rect x="964.8" y="632.8" class="st11" width="329.1" height="4"/>
						<rect x="964.8" y="647.4" class="st11" width="329.1" height="4"/>
						<rect x="964.8" y="662" class="st11" width="329.1" height="4"/>
						<rect x="964.8" y="676.7" class="st11" width="329.1" height="4"/>
						<rect x="964.8" y="691.3" class="st11" width="329.1" height="4"/>
						<rect x="964.8" y="705.9" class="st11" width="329.1" height="4"/>
						<rect x="964.8" y="720.5" class="st11" width="329.1" height="4"/>
						<rect x="964.8" y="735.2" class="st11" width="329.1" height="4"/>
						<rect x="964.8" y="749.8" class="st11" width="329.1" height="4"/>
						<rect x="964.8" y="764.4" class="st11" width="329.1" height="4"/>
						<rect x="964.8" y="779" class="st11" width="329.1" height="4"/>
						<rect x="964.8" y="793.7" class="st11" width="329.1" height="4"/>
						<rect x="964.8" y="808.3" class="st11" width="329.1" height="4"/>
						<rect x="964.8" y="822.9" class="st11" width="329.1" height="4"/>
						<rect x="964.8" y="837.5" class="st11" width="329.1" height="4"/>
						<rect x="964.8" y="852.2" class="st11" width="329.1" height="4"/>
						<rect x="964.8" y="866.8" class="st11" width="329.1" height="4"/>
						<rect x="964.8" y="881.4" class="st11" width="329.1" height="4"/>
						<rect x="964.8" y="896" class="st11" width="329.1" height="4"/>
						<rect x="964.8" y="910.7" class="st11" width="329.1" height="4"/>
					</g>
				</g>
			</g>
		</g>
		<g class="st9">
			<defs>
				<circle id="SVGID_13_" cx="350.5" cy="535.5" r="261.8"/>
			</defs>
			<clipPath id="SVGID_14_">
				<use xlink:href="#SVGID_13_"  style="overflow:visible;"/>
			</clipPath>
			<g class="st12">
				<g>
					<g>
						<rect x="0" y="246.8" class="st11" width="675" height="6"/>
						<rect x="0" y="276.8" class="st11" width="675" height="6"/>
						<rect x="0" y="306.8" class="st11" width="675" height="6"/>
						<rect x="0" y="336.8" class="st11" width="675" height="6"/>
						<rect x="0" y="366.8" class="st11" width="675" height="6"/>
						<rect x="0" y="396.8" class="st11" width="675" height="6"/>
						<rect x="0" y="426.8" class="st11" width="675" height="6"/>
						<rect x="0" y="456.8" class="st11" width="675" height="6"/>
						<rect x="0" y="486.8" class="st11" width="675" height="6"/>
						<rect x="0" y="516.8" class="st11" width="675" height="6"/>
						<rect x="0" y="546.8" class="st11" width="675" height="6"/>
						<rect x="0" y="576.8" class="st11" width="675" height="6"/>
						<rect x="0" y="606.8" class="st11" width="675" height="6"/>
						<rect x="0" y="636.8" class="st11" width="675" height="6"/>
						<rect x="0" y="666.8" class="st11" width="675" height="6"/>
						<rect x="0" y="696.8" class="st11" width="675" height="6"/>
						<rect x="0" y="726.8" class="st11" width="675" height="6"/>
						<rect x="0" y="756.8" class="st11" width="675" height="6"/>
						<rect x="0" y="786.8" class="st11" width="675" height="6"/>
						<rect x="0" y="816.8" class="st11" width="675" height="6"/>
						<rect x="0" y="846.8" class="st11" width="675" height="6"/>
					</g>
				</g>
			</g>
		</g>
		<g class="st9">
			<defs>
				<circle id="SVGID_15_" cx="2414.2" cy="444.8" r="261.8"/>
			</defs>
			<clipPath id="SVGID_16_">
				<use xlink:href="#SVGID_15_"  style="overflow:visible;"/>
			</clipPath>
			<g class="st13">
				<g>
					<g>
						<rect x="2089.7" y="156.1" class="st11" width="675" height="6"/>
						<rect x="2089.7" y="186.1" class="st11" width="675" height="6"/>
						<rect x="2089.7" y="216.1" class="st11" width="675" height="6"/>
						<rect x="2089.7" y="246.1" class="st11" width="675" height="6"/>
						<rect x="2089.7" y="276.1" class="st11" width="675" height="6"/>
						<rect x="2089.7" y="306.1" class="st11" width="675" height="6"/>
						<rect x="2089.7" y="336.1" class="st11" width="675" height="6"/>
						<rect x="2089.7" y="366.1" class="st11" width="675" height="6"/>
						<rect x="2089.7" y="396.1" class="st11" width="675" height="6"/>
						<rect x="2089.7" y="426.1" class="st11" width="675" height="6"/>
						<rect x="2089.7" y="456.1" class="st11" width="675" height="6"/>
						<rect x="2089.7" y="486.1" class="st11" width="675" height="6"/>
						<rect x="2089.7" y="516.1" class="st11" width="675" height="6"/>
						<rect x="2089.7" y="546.1" class="st11" width="675" height="6"/>
						<rect x="2089.7" y="576.1" class="st11" width="675" height="6"/>
						<rect x="2089.7" y="606.1" class="st11" width="675" height="6"/>
						<rect x="2089.7" y="636.1" class="st11" width="675" height="6"/>
						<rect x="2089.7" y="666.1" class="st11" width="675" height="6"/>
						<rect x="2089.7" y="696.1" class="st11" width="675" height="6"/>
						<rect x="2089.7" y="726.1" class="st11" width="675" height="6"/>
						<rect x="2089.7" y="756.1" class="st11" width="675" height="6"/>
					</g>
				</g>
			</g>
		</g>
	</g>
</g>
</svg>
