<svg id="Layer_1" data-name="Layer 1" xmlns="http://www.w3.org/2000/svg" viewBox="0 0 34.28 46.1"><defs><style>.cls-1,.cls-2,.cls-5{fill:none;stroke-miterlimit:10;}.cls-1,.cls-2{stroke:#333;}.cls-1{stroke-width:2px;}.cls-2,.cls-5{stroke-width:0.75px;}.cls-3{fill:#ebebeb;opacity:0.52;}.cls-4{fill:#333;}.cls-5{stroke:#fff;opacity:0.76;}</style></defs><title>2-sheild packing</title><rect class="cls-1" x="1" y="1" width="32.28" height="44.1" rx="2.78" ry="2.78"/><rect class="cls-2" x="7.55" y="8.35" width="22.53" height="3.36" rx="0.98" ry="0.98"/><rect class="cls-2" x="6.27" y="20.33" width="23.33" height="15.55" rx="2.14" ry="2.14"/><path class="cls-3" d="M4.48.84H25.29a0,0,0,0,1,0,0V45.1a0,0,0,0,1,0,0H4.48a3.8,3.8,0,0,1-3.8-3.8V4.64A3.8,3.8,0,0,1,4.48.84Z"/><path class="cls-4" d="M3.57.84H16.34a0,0,0,0,1,0,0V45.26a0,0,0,0,1,0,0H3.57A3.05,3.05,0,0,1,.52,42.21V3.89A3.05,3.05,0,0,1,3.57.84Z"/><line class="cls-5" x1="18.9" y1="12.19" x2="23.53" y2="7.55"/><line class="cls-5" x1="19.22" y1="15.7" x2="23.85" y2="11.07"/><line class="cls-5" x1="19.22" y1="33.6" x2="23.85" y2="28.96"/><line class="cls-5" x1="19.86" y1="37.43" x2="24.49" y2="32.8"/></svg>