<svg id="Layer_1" data-name="Layer 1" xmlns="http://www.w3.org/2000/svg" viewBox="0 0 51.48 46.85"><defs><style>.cls-1{fill:none;stroke:#333;stroke-miterlimit:10;stroke-width:2px;}.cls-2{fill:#333;}</style></defs><title>24 Hours</title><path class="cls-1" d="M21.65,5.88m.68,1.89a10,10,0,0,1,.25,2.29v.08c0,4.89-2.51,7.31-7.68,11.31l-4.76,3.68H20.33a2.8,2.8,0,0,1,2.8,2.8,2.76,2.76,0,0,1-2.8,2.76H4.47c-2,0-3.47-1.13-3.47-3a4.06,4.06,0,0,1,1.67-3.21L11,17.62c3.63-3,5.05-4.59,5.05-7a3.59,3.59,0,0,0-3.93-3.8C10.27,6.8,9,7.6,7.35,9.35a2.93,2.93,0,0,1-2.17.92A2.91,2.91,0,0,1,2.25,7.35a3.22,3.22,0,0,1,.75-2A11.51,11.51,0,0,1,12.52,1a12.89,12.89,0,0,1,4,.58"/><path class="cls-1" d="M46.3,15v4.14h1.55a2.62,2.62,0,0,1,2.63,2.63,2.58,2.58,0,0,1-2.63,2.59H46.3v3.51a3,3,0,0,1-3.09,3,3,3,0,0,1-3-3V24.38h-12a3,3,0,0,1-3.13-3,5.21,5.21,0,0,1,1.5-3.51L39.21,3.17C40.42,1.75,41.34,1,43.21,1A3,3,0,0,1,46.3,4V6.64M40.17,19.16v-9.1l-7.77,9.1Z"/><path class="cls-2" d="M.41,37.67a1.09,1.09,0,0,1,1.1-1.1,1.09,1.09,0,0,1,1.1,1.1v3H6.68v-3a1.1,1.1,0,1,1,2.21,0v8a1.1,1.1,0,1,1-2.21,0v-3H2.61v3a1.09,1.09,0,0,1-1.1,1.1,1.09,1.09,0,0,1-1.1-1.1Z"/><path class="cls-2" d="M10.49,41.69v0a5.18,5.18,0,0,1,5.34-5.18,5.14,5.14,0,0,1,5.31,5.16v0a5.18,5.18,0,0,1-5.34,5.18A5.14,5.14,0,0,1,10.49,41.69Zm8.35,0v0a3,3,0,0,0-3-3.15,3,3,0,0,0-3,3.12v0a3,3,0,0,0,3,3.15A3,3,0,0,0,18.84,41.69Z"/><path class="cls-2" d="M22.6,42.38V37.67a1.1,1.1,0,1,1,2.21,0v4.65c0,1.63.82,2.48,2.16,2.48s2.16-.82,2.16-2.41V37.67a1.1,1.1,0,0,1,2.21,0v4.64c0,3-1.7,4.53-4.4,4.53S22.6,45.33,22.6,42.38Z"/><path class="cls-2" d="M33.22,37.75a1.09,1.09,0,0,1,1.1-1.1h3.48a4,4,0,0,1,2.92,1A3.15,3.15,0,0,1,41.59,40v0a3.06,3.06,0,0,1-2,3.05l1.53,1.86a1.28,1.28,0,0,1,.36.84,1,1,0,0,1-1,1,1.32,1.32,0,0,1-1.09-.57l-2.15-2.72H35.43v2.19a1.1,1.1,0,1,1-2.21,0Zm4.44,3.77c1.07,0,1.69-.57,1.69-1.42v0c0-.95-.66-1.43-1.73-1.43H35.43v2.88Z"/><path class="cls-2" d="M43,45.62a1,1,0,0,1-.42-.83,1,1,0,0,1,1-1,1.06,1.06,0,0,1,.63.2,4.23,4.23,0,0,0,2.56.9c.9,0,1.45-.36,1.45-.95v0c0-.56-.34-.84-2-1.27-2-.52-3.32-1.07-3.32-3.07v0c0-1.82,1.46-3,3.51-3a5.82,5.82,0,0,1,3.18.89,1,1,0,0,1-.54,1.89,1.06,1.06,0,0,1-.56-.16,4.17,4.17,0,0,0-2.11-.67c-.84,0-1.29.39-1.29.87v0c0,.66.43.87,2.16,1.32,2,.53,3.18,1.26,3.18,3v0c0,2-1.52,3.11-3.68,3.11A6.47,6.47,0,0,1,43,45.62Z"/></svg>