<svg id="Layer_1" data-name="Layer 1" xmlns="http://www.w3.org/2000/svg" viewBox="0 0 45.99 43.52"><defs><style>.cls-1{fill:#008d46;}.cls-1,.cls-2{stroke:#000;stroke-miterlimit:10;}.cls-2{fill:#f47722;}</style></defs><title>Aarogya Setu</title><path class="cls-1" d="M23,42.79l-7.06-7.56a2.34,2.34,0,1,1,3.51-3.1l3.9,4L34.15,24a2.34,2.34,0,1,1,3.16,3.45Z"/><path class="cls-2" d="M41.82,4.15h0A13.57,13.57,0,0,0,23,4.44,13.57,13.57,0,0,0,4.17,4.15h0C-1.3,9.27-.3,17.85,4.82,23.33l8,8.59a5.15,5.15,0,0,1,8.65-1.72L23.25,32l8.9-10,.1-.1a5.16,5.16,0,0,1,8.32,2l.6-.64C46.29,17.85,47.29,9.27,41.82,4.15Z"/></svg>