<svg id="Layer_1" data-name="Layer 1" xmlns="http://www.w3.org/2000/svg" viewBox="0 0 46.13 46.13"><defs><style>.cls-1,.cls-2{fill:#d96527;}.cls-1,.cls-4{stroke:#000;stroke-miterlimit:10;stroke-width:0.75px;}.cls-3{fill:#231f20;}.cls-4{fill:#f8b1b3;opacity:0.5;}</style></defs><title>Contactless Delivery</title><rect class="cls-1" x="16.07" y="30.57" width="11.48" height="9"/><path class="cls-1" d="M23.85,18.95a1.37,1.37,0,0,1-1.37,1.37h0a1.37,1.37,0,0,1-1.37-1.37V7.48a1.37,1.37,0,0,1,1.37-1.37h0a1.37,1.37,0,0,1,1.37,1.37Z"/><path class="cls-1" d="M27.42,21.36c0,.83-.69.11-1.52.11h0A1.5,1.5,0,0,1,24.4,20V9a1.5,1.5,0,0,1,1.5-1.5h0A1.5,1.5,0,0,1,27.4,9Z"/><path class="cls-1" d="M20.56,20a1.5,1.5,0,0,1-1.5,1.5h0a1.5,1.5,0,0,1-1.5-1.5V9a1.5,1.5,0,0,1,1.5-1.5h0A1.5,1.5,0,0,1,20.56,9Z"/><path class="cls-1" d="M17.14,23.53a1.5,1.5,0,0,1-1.5,1.5h0a1.5,1.5,0,0,1-1.5-1.5v-11a1.5,1.5,0,0,1,1.5-1.5h0a1.5,1.5,0,0,1,1.5,1.5Z"/><rect class="cls-1" x="14.15" y="20.32" width="15.22" height="13.44" rx="6.37" ry="6.37"/><path class="cls-2" d="M27.42,27.2a3,3,0,0,1-3.18,2.86H17.35a3,3,0,0,1-3.18-2.86V21.5a3,3,0,0,1,3.18-2.86h6.88a3,3,0,0,1,3.18,2.86Z"/><path class="cls-1" d="M31.06,23.85a1.53,1.53,0,0,1-1.53,1.53h0A1.53,1.53,0,0,1,28,23.85V18a1.53,1.53,0,0,1,1.53-1.53h0A1.53,1.53,0,0,1,31.06,18Z"/><path class="cls-1" d="M31.06,22.83s.73,10.28-8,10.88l.7-9A5.44,5.44,0,0,0,28,19Z"/><path class="cls-3" d="M28,19.65c.4,5.28-7.87,5.23-7.53,10.92C19.87,24.77,28.19,24.92,28,19.65Z"/><path class="cls-3" d="M16.39,31.88c2.33,2.37,6.06,2.32,9.06,1.65C22.49,34.38,18.58,34.4,16.39,31.88Z"/><path class="cls-3" d="M15.65,20.32a12.38,12.38,0,0,1,10.67,0A13.68,13.68,0,0,0,15.65,20.32Z"/><path class="cls-4" d="M44,14.23a22.78,22.78,0,1,0,1.78,8.83A22.76,22.76,0,0,0,44,14.23ZM4.47,23.06A18.58,18.58,0,0,1,34.68,8.55L8.55,34.68q-.47-.59-.9-1.22A18.49,18.49,0,0,1,4.47,23.06ZM40.19,30.3a18.58,18.58,0,0,1-28.75,7.28L37.58,11.45q.47.59.9,1.22A18.62,18.62,0,0,1,40.19,30.3Z"/></svg>