<svg id="Layer_1" data-name="Layer 1" xmlns="http://www.w3.org/2000/svg" viewBox="0 0 46.73 46.73"><defs><style>.cls-1{fill:none;stroke:#333;stroke-miterlimit:10;stroke-width:2px;}</style></defs><path class="cls-1" d="M39.18,7.55A22.37,22.37,0,0,0,7.55,39.18a22.37,22.37,0,0,0,31.63,0,22.37,22.37,0,0,0,0-31.63ZM28.35,23.78l4.88,4.87a2.15,2.15,0,0,1,0,3L30.7,34.2a1.11,1.11,0,0,1-.81.34,1.15,1.15,0,0,1-.82-.34L24.2,29.33a1.28,1.28,0,0,0-1.81,0L17.52,34.2a1.15,1.15,0,0,1-.82.34,1.11,1.11,0,0,1-.81-.34L12.67,31a1.11,1.11,0,0,1-.34-.81,1.15,1.15,0,0,1,.34-.82l4.87-4.87a1.28,1.28,0,0,0,0-1.81l-5.11-5.11a1.15,1.15,0,0,1-.34-.82,1.11,1.11,0,0,1,.34-.81l3.22-3.22a1.15,1.15,0,0,1,1.63,0l5.11,5.11a1.28,1.28,0,0,0,1.81,0l5.11-5.11a1.15,1.15,0,0,1,1.63,0l3.22,3.22a1.11,1.11,0,0,1,.34.81,1.15,1.15,0,0,1-.34.82l-5.81,5.81a.3.3,0,0,0,0,.41Zm0,0"/></svg>