<svg id="Layer_1" data-name="Layer 1" xmlns="http://www.w3.org/2000/svg" viewBox="0 0 60.31 45.23"><defs><style>.cls-1,.cls-3{fill:none;}.cls-2{fill:#ed2024;}.cls-3{stroke:#333;stroke-miterlimit:10;stroke-width:0.5px;}.cls-4{fill:#333;}</style></defs><title>Santizing Van</title><circle class="cls-1" cx="12.99" cy="12.99" r="12.99"/><path class="cls-2" d="M7.41,15.09A.29.29,0,0,1,7.18,15a1.72,1.72,0,0,0-1.11-.7,1.3,1.3,0,0,0-.64.08,1.06,1.06,0,0,1-1.13-1.7,1.08,1.08,0,0,1,1.3-.22,1.93,1.93,0,0,1,.19.14,1.49,1.49,0,0,0,1.66,0,.29.29,0,1,1,.33.47,2.09,2.09,0,0,1-2.34,0l-.13-.09a.5.5,0,0,0-.6.1.48.48,0,0,0-.12.38.49.49,0,0,0,.41.42.51.51,0,0,0,.22,0,1.87,1.87,0,0,1,.92-.11,2.28,2.28,0,0,1,1.48.94.29.29,0,0,1-.07.4A.29.29,0,0,1,7.41,15.09Z"/><path class="cls-2" d="M16.82,11.81h0a.29.29,0,0,1-.27-.31A2.09,2.09,0,0,1,18,9.68l.15,0a.48.48,0,0,0,.09-.86.49.49,0,0,0-.59,0,.48.48,0,0,0-.13.19A1.89,1.89,0,0,1,17,9.8a2.28,2.28,0,0,1-1.67.54.29.29,0,0,1-.26-.31.29.29,0,0,1,.31-.26,1.71,1.71,0,0,0,1.25-.4A1.32,1.32,0,0,0,17,8.82a1.06,1.06,0,1,1,1.37,1.36l-.23.06a1.5,1.5,0,0,0-1,1.3A.29.29,0,0,1,16.82,11.81Z"/><path class="cls-2" d="M7.62,20.68a1.1,1.1,0,0,1-.55-2.06c.49-.34,1.82-1.43,1.87-2.2a.28.28,0,0,1,.31-.27.29.29,0,0,1,.27.31c-.08,1.18-1.92,2.5-2.13,2.65a.54.54,0,0,0-.28.54.53.53,0,0,0,1,.07,4,4,0,0,1,.21-.65,2.62,2.62,0,0,1,2.21-1.72.28.28,0,0,1,.29.28.29.29,0,0,1-.28.29,2.08,2.08,0,0,0-1.7,1.39,3.4,3.4,0,0,0-.18.56A1.11,1.11,0,0,1,7.62,20.68Z"/><path class="cls-2" d="M12.37,21.94h-.15a1.17,1.17,0,0,1-.89-1.69,1.37,1.37,0,0,0,0-1.41.29.29,0,0,1,.5-.28,2,2,0,0,1,0,2,.6.6,0,0,0,.45.86.6.6,0,0,0,.62-.84,1.9,1.9,0,0,1-.07-1.82.29.29,0,1,1,.51.26,1.35,1.35,0,0,0,.07,1.3,1.18,1.18,0,0,1,.11.66A1.17,1.17,0,0,1,12.37,21.94Z"/><path class="cls-2" d="M12.53,19.54a5.7,5.7,0,1,1,5.7-5.7A5.71,5.71,0,0,1,12.53,19.54Zm0-10.83a5.13,5.13,0,1,0,5.13,5.13A5.13,5.13,0,0,0,12.53,8.71Z"/><path class="cls-2" d="M10.68,17.21a1.33,1.33,0,1,1,0-2.67.29.29,0,1,1,0,.57.76.76,0,0,0-.54,1.3.78.78,0,0,0,1.07,0,.76.76,0,0,0,.22-.54.29.29,0,1,1,.57,0,1.33,1.33,0,0,1-1.33,1.33Z"/><path class="cls-2" d="M14,13.57A1.06,1.06,0,0,1,13,12.51a.29.29,0,1,1,.57,0,.48.48,0,0,0,.14.34.5.5,0,0,0,.68,0A.48.48,0,0,0,14,12a.29.29,0,1,1,0-.57,1.06,1.06,0,1,1,0,2.11Z"/><path class="cls-2" d="M14.36,10.26a.29.29,0,0,1-.26-.17,2.85,2.85,0,0,1,0-2,2.33,2.33,0,0,1,.28-.53.76.76,0,0,0-.72-1.18.76.76,0,0,0-.56,1.14,1.89,1.89,0,0,1,.18.4,2.79,2.79,0,0,1-.1,1.92.28.28,0,0,1-.38.15.29.29,0,0,1-.15-.37,2.18,2.18,0,0,0,.08-1.53,1.32,1.32,0,0,0-.13-.28,1.33,1.33,0,1,1,2.25.07,1.78,1.78,0,0,0-.21.4,2.3,2.3,0,0,0,0,1.62.29.29,0,0,1-.15.38Z"/><path class="cls-2" d="M17.22,20.38a1.21,1.21,0,0,1-1.14-.81,2.29,2.29,0,0,1-.06-.27A1.85,1.85,0,0,0,14.45,18a.29.29,0,0,1-.26-.31.29.29,0,0,1,.31-.26,2.45,2.45,0,0,1,2.07,1.79,1.54,1.54,0,0,0,0,.19.63.63,0,0,0,.18.26.64.64,0,0,0,.5.16.63.63,0,0,0,.45-.27.65.65,0,0,0,0-.78.62.62,0,0,0-.24-.17,2.21,2.21,0,0,1-.89-.62A2.66,2.66,0,0,1,16,16a.29.29,0,1,1,.57.07A2.12,2.12,0,0,0,17,17.61a1.63,1.63,0,0,0,.66.45,1.19,1.19,0,0,1,.45.33,1.21,1.21,0,0,1-.78,2Z"/><path class="cls-2" d="M19.34,14.45h-.11a1.16,1.16,0,0,1-.39-.11,1.38,1.38,0,0,0-1.41,0,.29.29,0,1,1-.3-.49,2,2,0,0,1,2,0,.6.6,0,0,0,.19.05.61.61,0,0,0,.65-.54.6.6,0,0,0-.54-.65.62.62,0,0,0-.32.06,1.9,1.9,0,0,1-1.81.14.29.29,0,1,1,.24-.52,1.35,1.35,0,0,0,1.29-.12,1.17,1.17,0,0,1,1.71,1.14A1.17,1.17,0,0,1,19.34,14.45Z"/><path class="cls-2" d="M19.12,7.24a1.35,1.35,0,1,1,1.35-1.35A1.35,1.35,0,0,1,19.12,7.24Zm0-2.12a.78.78,0,1,0,.78.78A.78.78,0,0,0,19.12,5.11Z"/><path class="cls-2" d="M9.63,6.61a1.29,1.29,0,1,1,1.29-1.29A1.29,1.29,0,0,1,9.63,6.61Zm0-2a.72.72,0,1,0,.72.72A.72.72,0,0,0,9.63,4.6Z"/><path class="cls-3" d="M13,.81A12.17,12.17,0,1,0,25.16,13,12.18,12.18,0,0,0,13,.81ZM2.42,13A10.52,10.52,0,0,1,5,6.11L19.86,21A10.56,10.56,0,0,1,2.42,13ZM21,19.86,6.11,5A10.56,10.56,0,0,1,21,19.86Z"/><path class="cls-4" d="M45.41,40.48H29.8a.83.83,0,1,1,0-1.66H45.41a.83.83,0,0,1,0,1.66Z"/><path class="cls-4" d="M25,45.23a5.59,5.59,0,1,1,5.59-5.59A5.6,5.6,0,0,1,25,45.23Zm0-9.52A3.93,3.93,0,1,0,29,39.64,3.94,3.94,0,0,0,25,35.71Z"/><path class="cls-4" d="M50.17,45.23a5.59,5.59,0,1,1,5.59-5.59A5.6,5.6,0,0,1,50.17,45.23Zm0-9.52a3.93,3.93,0,1,0,3.93,3.93A3.94,3.94,0,0,0,50.17,35.71Z"/><path class="cls-4" d="M55,22.84H43.89c-4.1,0-5.55-2.28-5.55-4.22V10A.83.83,0,1,1,40,10v8.65c0,1.61,1.45,2.56,3.89,2.56H55a.83.83,0,1,1,0,1.66Z"/><path class="cls-4" d="M39.17,39.92a.8.8,0,0,1-.83-.77V26.74a.83.83,0,0,1,1.66,0V39.15A.8.8,0,0,1,39.17,39.92Z"/><path class="cls-4" d="M20.27,38.82H16.39a1.49,1.49,0,0,1-1.49-1.49V28.27a15.07,15.07,0,0,1-1.66.18v8.87a3.15,3.15,0,0,0,3.15,3.15h3.88a.83.83,0,1,0,0-1.66Z"/><path class="cls-4" d="M58.43,26.59a5.68,5.68,0,0,1-1.7-3.83.83.83,0,0,0,0-.18A17.16,17.16,0,0,0,40,9.14H27.76a14.91,14.91,0,0,1,.31,1.66H40a15.49,15.49,0,0,1,15,12.05,7.24,7.24,0,0,0,2.15,4.88,5.21,5.21,0,0,1,1.42,3.6v6a1.49,1.49,0,0,1-1.49,1.49H54.94a.83.83,0,0,0,0,1.66h2.22a3.15,3.15,0,0,0,3.15-3.15v-6A6.86,6.86,0,0,0,58.43,26.59Z"/></svg>