<svg id="Layer_1" data-name="Layer 1" xmlns="http://www.w3.org/2000/svg" viewBox="0 0 65.09 46.26"><defs><style>.cls-1{fill:#414042;stroke:#333;stroke-miterlimit:10;}</style></defs><title>Screened Personnel</title><path class="cls-1" d="M64.34,35.75H61.09l-2.46.68H48.22a1.34,1.34,0,0,1,0-2.68h.61a.25.25,0,0,0,0-.49h-.61l-.27,0-.1,0h-.94a1.34,1.34,0,1,1,0-2.68h1.86a.25.25,0,1,0,0-.49H46.05a1.3,1.3,0,1,1,0-2.61H49A.25.25,0,1,0,49,27H45.11a1.27,1.27,0,1,1,0-2.55h6.51a.41.41,0,0,0,.23-.45l-1.17-3.54,5,1.42,5.65,4.87a.25.25,0,0,0,.16.06h2.82a.25.25,0,0,0,0-.49H61.61L56,21.48l-.09-.05-5.4-1.53-1.68-5.07a1.45,1.45,0,0,0-1.38-1H37.68a.25.25,0,0,0-.23.32l1.61,4.71a.25.25,0,0,0,.23.17h3.46a1,1,0,0,1,.92.67L45,24a1.76,1.76,0,0,0-.16,3.51,1.79,1.79,0,0,0,.87,3.08,1.83,1.83,0,0,0,1.21,3.2H47a1.83,1.83,0,0,0,1.24,3.17H58.73l2.46-.68h3.15a.25.25,0,0,0,0-.49ZM50,19.86H48.3l-1.21-3.51H48.8ZM38,14.32H40.2l1.44,4.22H39.47Zm4.73,4.22h-1l-1.44-4.22h7.11a1,1,0,0,1,.91.66l.29.87h-1.9a.25.25,0,0,0-.23.33l1.38,4a.25.25,0,0,0,.23.17h2l1.12,3.5L45.52,24l-1.38-4.41A1.44,1.44,0,0,0,42.75,18.54Z"/><path class="cls-1" d="M34.85,22.79a.3.3,0,0,0-.3-.13l-.66.1a7.25,7.25,0,0,1-.13-5.45,11.88,11.88,0,0,0-.15-5.22l.25-.2c.08-.07.33-.27,0-1.41a11.45,11.45,0,0,0-3.41-5.21A18.86,18.86,0,0,0,20.38.83C15.65.1,11.64.59,8.46,2.29c-3.51,1.88-6,5.22-7.29,9.93A16.91,16.91,0,0,0,1,20.92a17.33,17.33,0,0,0,2,4.81,55.85,55.85,0,0,1,2.87,6.67c0,.13,0,.87-1.61,5-.88,2.23-1.81,4.36-1.81,4.39a.3.3,0,0,0,.16.4l.12,0A.3.3,0,0,0,3,42s1-2.2,1.84-4.46c1.5-3.81,1.67-4.83,1.64-5.19l3.36-5,9.37,6.22,7.15,5.15c-1.75,0-3.76.47-4.14,1.17s-1.78,5.23-1.83,5.42a.3.3,0,0,0,.2.38h.09a.3.3,0,0,0,.29-.22c.39-1.28,1.48-4.73,1.79-5.31a2.55,2.55,0,0,1,1.33-.58,10.08,10.08,0,0,1,2.74-.25.3.3,0,0,0,.25-.11l1.74,1.25a.3.3,0,0,0,.18.06l.11,0a11.6,11.6,0,0,0,2.72-1.65A13.31,13.31,0,0,0,36,33.09a12,12,0,0,0-1.19-10.29Zm-1.67-5.64a7.78,7.78,0,0,0,.1,5.71L23.7,24.35l-7.21-3.22.44-1.57a35.78,35.78,0,0,0,2.67-2.77c.6-.8,1.94-3.24,2.27-3.84,2.13-.33,9.69-.6,11.16-.65A11.33,11.33,0,0,1,33.18,17.16ZM19.24,32.94,10,26.78c-.13-.23-.6-1-1.52-2.45a6,6,0,0,1-.77-4.5A2.73,2.73,0,0,1,9.24,18c2.39-1.06,4.36,2.19,4.53,2.47l1.32,3.59a.3.3,0,0,0,.29.2h0a.3.3,0,0,0,.28-.22l.66-2.36,6.92,3.09Zm-4.66-12,1.19.53L15.33,23ZM6.21,31.65A51.4,51.4,0,0,0,3.5,25.42a16.72,16.72,0,0,1-1.92-4.64,16.31,16.31,0,0,1,.18-8.4C3,7.84,5.38,4.63,8.75,2.83,11.81,1.19,15.69.72,20.29,1.43a19.94,19.94,0,0,1,7.85,2.82,13.27,13.27,0,0,1,4,3.93,7,7,0,0,1,1.28,3.28l-.26.21c-1.09,0-9.48.32-11.54.69a.3.3,0,0,0-.21.15s-1.65,3-2.29,3.89-2.64,2.73-2.66,2.75a.3.3,0,0,0-.08.14l-.44,1.56-1.51-.67a.3.3,0,0,0-.14,0,8.31,8.31,0,0,0-1.46-1.8A3.41,3.41,0,0,0,9,17.48a3.36,3.36,0,0,0-1.9,2.19,6.6,6.6,0,0,0,.84,5c.79,1.21,1.25,2,1.44,2.31Zm29.26,1.23a12.7,12.7,0,0,1-4,5.56A11.87,11.87,0,0,1,29,39.95l-9.26-6.66,4.11-8.35L34.45,23.3A11.64,11.64,0,0,1,35.64,26,10.9,10.9,0,0,1,35.47,32.88Z"/></svg>