<svg id="Capa_1" data-name="Capa 1" xmlns="http://www.w3.org/2000/svg" viewBox="0 0 291.96 87.58"><defs><style>.cls-1{fill:#ec1c24;}.cls-2,.cls-3,.cls-4,.cls-7{fill:#fff;}.cls-3{font-size:49.02px;}.cls-3,.cls-7{font-family:GothamRounded-Bold, Gotham Rounded;font-weight:700;}.cls-4,.cls-6{fill-rule:evenodd;}.cls-5,.cls-6{fill:#fdc24b;}.cls-7{font-size:15.97px;}</style></defs><title>Flyporter_vector</title><rect class="cls-1" width="291.96" height="87.58" rx="43.79" ry="43.79"/><path class="cls-2" d="M46.36,65a3.72,3.72,0,0,0,4.43,3.27,3.85,3.85,0,0,0,3-4.22L52.07,47.83a0,0,0,0,1,0,0l3.33-.36a3.15,3.15,0,0,0,2.87-3.29,3,3,0,0,0-3.39-2.77l-3.56.39-.1-.74a3.76,3.76,0,0,1,.4-2.47,2.24,2.24,0,0,1,1.8-.93,30,30,0,0,1,3.31.41c1.65.21,2.88-1.73,2.7-3.39a3.36,3.36,0,0,0-2.84-2.71,14.89,14.89,0,0,0-5.53-.35c-2.74.27-4.56,1.16-5.78,2.67s-1.74,3.68-1.44,6.56L44,42.45a0,0,0,0,1,0,0l-.4,0a3.19,3.19,0,0,0-2.91,2.92,3,3,0,0,0,3.4,3.19l.57-.06Z"/><text class="cls-3" transform="translate(61.85 67.04) rotate(-5.93)">l</text><path class="cls-4" d="M97.23,36.84h0A3.33,3.33,0,0,1,99.41,41L90.29,70.19a3.44,3.44,0,0,1-3.9,2.43,3.33,3.33,0,0,1-2.49-4.24l2-6.26-.1-.16L74.87,43.42a3.44,3.44,0,0,1,.83-4.53,3.33,3.33,0,0,1,4.81,1l8,13.61a0,0,0,0,0,0,0L93.07,39a3.33,3.33,0,0,1,4.16-2.18"/><path class="cls-2" d="M118.76,63.13c-3.36.37-6.44-2.26-6.87-6.7v-.1c-.44-4.43,2.06-7.68,5.42-8s6.48,2.26,6.92,6.69v.1c.44,4.48-2.11,7.68-5.46,8.05M106.55,75a3.66,3.66,0,0,0,4,3.39,3.76,3.76,0,0,0,3.22-4.18l-.78-7.9a0,0,0,0,1,0,0,9.49,9.49,0,0,0,8.24,3.07c6-.66,11.05-6.15,10.17-15.06v-.1c-.88-8.92-7-13.18-12.9-12.53a9.36,9.36,0,0,0-7.47,5.2l0-.35a3.66,3.66,0,0,0-4-3.39,3.76,3.76,0,0,0-3.22,4.18Z"/><path class="cls-2" d="M163.48,59.74a3.56,3.56,0,0,0,4.23,3.13,3.68,3.68,0,0,0,2.84-4l-.66-6.44c-.35-3.42.33-5.89,1.91-7.49a18.68,18.68,0,0,1,4.75-2.33,3.44,3.44,0,0,0-1.48-6.67c-2.73.27-5.5,3.26-6.27,5.78l-.1-.95a3.68,3.68,0,0,0-3.6-3.37,3.56,3.56,0,0,0-3.5,3.92Z"/><path class="cls-2" d="M194.54,59.81a10.5,10.5,0,0,0,4-1.11,2.9,2.9,0,0,0,1.54-2.84,3,3,0,0,0-3.24-2.63c-.14,0-.6.11-.83.13-1.58.16-2.36-.56-2.53-2.19l-1.09-10.64a0,0,0,0,1,0,0l2.93-.3a3.31,3.31,0,0,0,2.89-2.82,3,3,0,0,0-3.35-3.25l-3.1.32a0,0,0,0,1,0,0l-.3-2.92a3.68,3.68,0,0,0-3.6-3.37,3.56,3.56,0,0,0-3.5,3.92l.32,3.1a0,0,0,0,1,0,0h0A3.31,3.31,0,0,0,181.71,38a3,3,0,0,0,3.35,3.25l.23,0,1.21,11.83c.59,5.78,3.7,7.2,8,6.76"/><path class="cls-2" d="M224.35,53.69a2.85,2.85,0,0,0,.57-2.87A2.72,2.72,0,0,0,222.07,49a2.67,2.67,0,0,0-1.71.74,8.22,8.22,0,0,1-4.86,2.19,5.82,5.82,0,0,1-6.59-4.23,0,0,0,0,1,0,0l14-1.43a3.25,3.25,0,0,0,3-3.74c-.53-5.17-4.91-11.64-13.25-10.79-7.27.74-11.74,7.13-11,14.26V46c.78,7.64,6.87,12.34,14.37,11.57a13,13,0,0,0,8.36-3.92m-16-10.46a0,0,0,0,1,0,0c.24-3.25,1.93-5.53,4.86-5.83S218.26,39,219,42.1a0,0,0,0,1,0,0Z"/><path class="cls-2" d="M231.51,51.83A3.56,3.56,0,0,0,235.73,55a3.68,3.68,0,0,0,2.84-4l-.66-6.44c-.35-3.42.33-5.89,1.91-7.49a18.68,18.68,0,0,1,4.75-2.33,3.28,3.28,0,0,0,2.32-3.58,3.25,3.25,0,0,0-3.8-3.09c-2.73.27-5.5,3.26-6.27,5.78l-.1-.95a3.68,3.68,0,0,0-3.6-3.37,3.56,3.56,0,0,0-3.5,3.92Z"/><path class="cls-5" d="M144.11,62.4l-.23,0a12.82,12.82,0,0,1-2.84-1h0a9.88,9.88,0,0,1-1.23-.73,12.89,12.89,0,0,1-4.93-6.27,11,11,0,0,1-.55-4.58,15.42,15.42,0,0,1,1.28-4.84h0c.13-.3.27-.6.41-.89a12.74,12.74,0,0,1,.63-1.13l.1-.15c1.74-2.71,4.14-4.65,6.63-6.67a81.57,81.57,0,0,1,10.88-6.94c1-.57.35-2.08-.76-1.44-4.3,2.16-7.19,3.43-11.44,6.64s-9.35,8.15-10.34,15.21h0a13.62,13.62,0,0,0,.69,5.65,15.46,15.46,0,0,0,5.9,7.55,12.63,12.63,0,0,0,1.56.93h0a15.44,15.44,0,0,0,3.42,1.21l.27.07a16.62,16.62,0,0,0,4.54.29,13.93,13.93,0,0,0,5.37-1.49,11.78,11.78,0,0,0,4.4-3.92,15.55,15.55,0,0,0,2.36-5.89,15.35,15.35,0,0,0-.18-6.49,12.87,12.87,0,0,0-3.17-5.83c-1.74-2.22-6.7-4.2-6.68-3.63s3.86,2,5.84,4.37a9.43,9.43,0,0,1,2.51,5.42,14,14,0,0,1-.14,5.78,13.72,13.72,0,0,1-2.28,5,9.58,9.58,0,0,1-3.7,3.06A11.67,11.67,0,0,1,148,62.74a14.8,14.8,0,0,1-3.84-.34"/><path class="cls-6" d="M155.46,25.73l1.34.93h0l4.24-2.52a0,0,0,0,0,0,0l-3.52-3c.45-.26,1.25-.86,1.63-.64l2.23,1.16h0l.86-.39s.69.05.76.58-.34.53-.34.53l.81.52h0l3.78-1.66c.43-.19,2,.05,2.19.61s0,1-.66,1.29-4,2-4.11,2.08h0l-.26,1s.42-.32.44-.05.08,1.28-.25,1.33a3.26,3.26,0,0,0-.61.16l-1.16,3c-.12.46-1.16.59-1.71.79l.84-5.2a0,0,0,0,0,0,0l-4.35,1.82,0,0-.36,1.84,0,0-1,.26-.13-2.26h0l-1.54-2,.91-.13Z"/><text class="cls-7" transform="matrix(1, -0.01, 0, 1, 42.33, 27.3)">A</text><text class="cls-7" transform="matrix(1, -0.01, 0, 1, 54.23, 27.17)">i</text><text class="cls-7" transform="matrix(1, -0.01, 0, 1, 58.73, 27.12)">r</text><text class="cls-7" transform="matrix(1, -0.01, 0, 1, 65.08, 27.06)">A</text><text class="cls-7" transform="matrix(1, -0.01, 0, 1, 76.99, 26.93)">s</text><text class="cls-7" transform="matrix(1, -0.01, 0, 1, 84.68, 26.85)">i</text><text class="cls-7" transform="matrix(1, -0.01, 0, 1, 89.17, 26.8)">a</text></svg>