<svg xmlns="http://www.w3.org/2000/svg" width="118" height="38" viewBox="0 0 118 38">
    <g fill="none" fill-rule="evenodd">
        <g fill="#001B94">
            <g>
                <path d="M113.598 8.327c0 .54-.438.979-.977.979-.54 0-.979-.438-.979-.979 0-.541.438-.98.979-.98.54 0 .977.439.977.98zm-2.934-2.94c0 .542-.438.98-.978.98s-.978-.438-.978-.98c0-.54.438-.98.978-.98s.978.44.978.98zm2.934 0c0 .542-.438.98-.977.98-.54 0-.979-.438-.979-.98 0-.54.438-.98.979-.98.54 0 .977.44.977.98zm-5.868 0c0 .542-.438.98-.978.98s-.978-.438-.978-.98c0-.54.438-.98.978-.98s.978.44.978.98zm7.538-3.14c.382.382.382 1.002 0 1.385-.382.382-1 .382-1.383 0-.382-.383-.382-1.003 0-1.385.382-.383 1.001-.383 1.383 0zm2.446-1.96c.381.383.381 1.003 0 1.386-.382.382-1.002.382-1.384 0-.382-.383-.382-1.003 0-1.386s1.002-.383 1.384 0zm-13.408 5.1c0 .542-.438.98-.978.98s-.978-.438-.978-.98c0-.54.438-.98.978-.98s.978.44.978.98zm-2.934 0c0 .542-.438.98-.978.98s-.978-.438-.978-.98c0-.54.438-.98.978-.98s.978.44.978.98zm11.249 4.899c.54 0 .977.439.977.98 0 .54-.438.98-.977.98-.54 0-.979-.44-.979-.98 0-.541.438-.98.979-.98zm-10.76 9.796c0 .54-.438.98-.978.98s-.978-.44-.978-.98c0-.542.438-.98.978-.98s.978.438.978.98zm-2.934-2.939c0 .54-.438.98-.978.98s-.979-.44-.979-.98c0-.541.439-.98.979-.98s.978.439.978.98zm2.934 0c0 .54-.438.98-.978.98s-.978-.44-.978-.98c0-.541.438-.98.978-.98s.978.439.978.98zm-5.869 0c0 .54-.438.98-.978.98s-.978-.44-.978-.98c0-.541.438-.98.978-.98s.978.439.978.98zm4.89 4.897c.54 0 .979.44.979.98s-.438.98-.978.98-.978-.44-.978-.98.438-.98.978-.98zm11.739-8.816c.54 0 .977.44.977.98 0 .541-.438.98-.977.98-.54 0-.979-.439-.979-.98 0-.54.438-.98.979-.98zm0 3.429c.54 0 .977.438.977.98 0 .54-.438.98-.977.98-.54 0-.979-.44-.979-.98 0-.542.438-.98.979-.98zm-6.358-3.918c0 .541-.439.98-.979.98s-.978-.439-.978-.98c0-.54.438-.98.978-.98s.979.44.979.98zm1.67-3.142c.381.383.381 1.003 0 1.386-.383.383-1.002.383-1.384 0-.382-.383-.382-1.003 0-1.386.382-.382 1.001-.382 1.383 0zm2.445-1.959c.382.383.382 1.003 0 1.385-.383.383-1.002.383-1.384 0-.382-.382-.382-1.002 0-1.385s1.001-.383 1.384 0zm-6.358 6.367c.382.383.382 1.003 0 1.386-.383.382-1.002.382-1.384 0-.381-.383-.381-1.003 0-1.386.382-.382 1.001-.382 1.384 0zm-38.672 7.101C63.074 23.035 60.398 24 57.326 24c-3.297 0-6.152-1.156-8.557-3.464-2.384-2.332-3.578-5.17-3.578-8.501 0-3.332 1.193-6.171 3.577-8.503C51.173 1.18 54.028 0 57.326 0c1.952 0 3.667.32 5.144.968 1.477.624 2.966 1.69 4.47 3.19l.123.123-2.31 2.485-.133-.11c-1.469-1.224-2.598-2.045-3.394-2.475-1.18-.62-2.478-.93-3.9-.93-2.454 0-4.493.856-6.125 2.57-1.636 1.717-2.453 3.784-2.454 6.214 0 2.405.817 4.461 2.454 6.178 1.632 1.715 3.67 2.57 6.125 2.57 2.269.001 4.18-.654 5.747-1.96 1.625-1.349 2.457-3.078 2.502-5.196h-8.002v-3.218l11.594-.001v2.118c0 3.551-1.271 6.416-3.82 8.576zm19.96.486c-1.637 1.563-3.604 2.347-5.89 2.347-2.264 0-4.22-.784-5.856-2.347-1.64-1.57-2.46-3.566-2.46-5.976 0-2.387.808-4.372 2.426-5.94 1.637-1.587 3.604-2.382 5.89-2.382 2.265 0 4.22.794 5.856 2.381 1.663 1.567 2.493 3.552 2.493 5.942 0 2.409-.818 4.405-2.46 5.975zm-2.333-9.757c-.928-.97-2.11-1.456-3.557-1.456-1.47 0-2.661.487-3.59 1.456-.907.944-1.366 2.199-1.366 3.782 0 1.559.47 2.814 1.398 3.782.93.97 2.11 1.455 3.558 1.455 1.447 0 2.628-.485 3.557-1.455.93-.968 1.4-2.223 1.4-3.782 0-1.558-.47-2.815-1.4-3.782zm-40.23-6.207c-.33.375-.814.55-1.418.55-.567 0-1.048-.183-1.416-.55-.338-.384-.51-.849-.51-1.372 0-.523.169-.974.51-1.337.349-.374.83-.551 1.417-.551.569 0 1.037.19 1.384.583.359.361.542.798.542 1.305 0 .543-.167 1.004-.51 1.372zm-3.047 17.984V7.618h3.26v15.99h-3.26zm-4.521-2.094c-1.508 1.616-3.457 2.421-5.83 2.421-2.506 0-4.544-.86-6.096-2.589-1.461-1.634-2.188-3.682-2.188-6.129 0-2.21.754-4.085 2.26-5.607 1.526-1.545 3.35-2.32 5.464-2.32 1.674 0 3.187.367 4.533 1.105l.094.052v3.469l-.283-.192c-.534-.362-1.17-.674-1.904-.933-.71-.278-1.36-.416-1.946-.416-1.518 0-2.719.478-3.623 1.423-.907.945-1.366 2.198-1.366 3.782 0 1.558.469 2.825 1.4 3.816.95.969 2.163 1.454 3.655 1.454 1.396 0 2.543-.526 3.453-1.58.926-1.05 1.404-2.589 1.404-4.642V.394h3.26v14.758c0 2.598-.758 4.725-2.287 6.362zm-19.31 2.093v-9.308c0-1.14-.36-2.07-1.071-2.799-.69-.749-1.543-1.125-2.568-1.125-.98 0-1.834.372-2.571 1.128-.71.729-1.068 1.656-1.068 2.796v9.308H5.36v-9.308c0-2.054.64-3.743 1.929-5.052C8.58 7.94 10.23 7.29 12.228 7.29c1.976 0 3.626.65 4.936 1.957 1.312 1.307 1.963 2.997 1.964 5.052v9.308h-3.261zM0 23.607V.394h3.424l.001 23.213H0z" transform="translate(-30 -20) translate(30 20)"/>
                <text font-family="BauhausHarishwk-Medium, Bauhaus Harish wk" font-size="11" font-weight="400" transform="translate(-30 -20) translate(30 20)">
                    <tspan x="39" y="35">6EBagPort</tspan>
                </text>
            </g>
        </g>
    </g>
</svg>
